<svg width="83" height="84" viewBox="0 0 83 84" fill="none" xmlns="http://www.w3.org/2000/svg">
<path d="M63.5394 17.2812L63.3082 17.5046L53.6043 26.8852L53.4803 27.0051H53.3078H47.0204V31.3245H55.2251L66.4809 20.4473L66.6862 20.2489L66.9479 20.3631C67.9469 20.7987 69.0304 21.006 70.1196 20.9701C71.2088 20.9341 72.2763 20.6557 73.2444 20.1551C74.2124 19.6546 75.0567 18.9444 75.7157 18.0764C76.3746 17.2084 76.8318 16.2044 77.0538 15.1374C77.2758 14.0705 77.2571 12.9675 76.999 11.9086C76.7409 10.8498 76.25 9.86187 75.562 9.01672C74.8739 8.17156 74.0061 7.49047 73.0216 7.02303C72.0371 6.55559 70.9608 6.31356 69.871 6.31455L63.5394 17.2812ZM63.5394 17.2812L63.3882 16.9974M63.5394 17.2812L63.3882 16.9974M63.3882 16.9974C62.8385 15.9651 62.5469 14.8151 62.5383 13.6456C62.5407 11.702 63.3138 9.83874 64.6881 8.46441C66.0629 7.08968 67.9268 6.3165 69.871 6.31455L63.3882 16.9974ZM66.2455 63.8645L66.4608 64.0798L66.7343 63.9462C67.7117 63.4691 68.7841 63.2187 69.8717 63.2136C71.3215 63.2138 72.7388 63.6438 73.9442 64.4493C75.15 65.255 76.0899 66.4001 76.6448 67.7399C77.1998 69.0797 77.345 70.554 77.0621 71.9764C76.7792 73.3987 76.0808 74.7052 75.0554 75.7307C74.0299 76.7561 72.7234 77.4544 71.3011 77.7374C69.8787 78.0203 68.4045 77.8751 67.0646 77.3201C65.7248 76.7651 64.5797 75.8253 63.774 74.6195C62.9685 73.4141 62.5385 71.997 62.5383 70.5472C62.5448 69.4595 62.796 68.3871 63.2735 67.4097L63.4071 67.1361L63.1918 66.9208L53.5836 57.3127L53.4587 57.1877H53.282H47.0204V52.8683H55.2493L66.2455 63.8645ZM62.5875 39.9367H62.8896L62.9899 39.6518C63.492 38.2263 64.4231 36.9911 65.6553 36.1159C66.8874 35.2409 68.3602 34.7686 69.8714 34.7641C71.2131 34.7617 72.5296 35.1281 73.6772 35.8233C74.8247 36.5186 75.759 37.5158 76.3781 38.7062C76.9972 39.8965 77.2772 41.2341 77.1875 42.5728C77.0978 43.9115 76.6418 45.1998 75.8695 46.2969C75.0971 47.394 74.0381 48.2577 72.808 48.7936C71.578 49.3295 70.2243 49.5171 68.8949 49.3357C67.5656 49.1543 66.3116 48.611 65.2701 47.7652C64.2286 46.9193 63.4396 45.8035 62.9894 44.5396L62.8884 44.2561H62.5875H47.0204V39.9367H62.5875ZM68.1967 73.0511C68.6922 73.3821 69.2747 73.5588 69.8706 73.5588C70.6697 73.5588 71.436 73.2414 72.0011 72.6764C72.5661 72.1113 72.8835 71.345 72.8835 70.5459C72.8835 69.95 72.7068 69.3675 72.3758 68.872C72.0447 68.3765 71.5741 67.9904 71.0236 67.7623C70.4731 67.5343 69.8673 67.4746 69.2828 67.5909C68.6984 67.7071 68.1615 67.9941 67.7402 68.4154C67.3188 68.8368 67.0318 69.3737 66.9156 69.9581C66.7993 70.5426 66.859 71.1484 67.087 71.6989C67.3151 72.2494 67.7012 72.72 68.1967 73.0511ZM68.1967 44.6016C68.6922 44.9326 69.2747 45.1093 69.8706 45.1093C70.6697 45.1093 71.436 44.7919 72.0011 44.2269C72.5661 43.6618 72.8835 42.8955 72.8835 42.0964C72.8835 41.5005 72.7068 40.918 72.3758 40.4225C72.0447 39.927 71.5741 39.5409 71.0236 39.3128C70.4731 39.0848 69.8673 39.0251 69.2828 39.1414C68.6984 39.2576 68.1615 39.5446 67.7402 39.9659C67.3188 40.3873 67.0318 40.9242 66.9156 41.5086C66.7993 42.0931 66.859 42.6989 67.087 43.2494C67.3151 43.7999 67.7012 44.2705 68.1967 44.6016ZM68.1967 16.1521C68.6922 16.4831 69.2747 16.6598 69.8706 16.6598C70.6697 16.6598 71.436 16.3424 72.0011 15.7774C72.5661 15.2123 72.8835 14.446 72.8835 13.6469C72.8835 13.051 72.7068 12.4685 72.3758 11.973C72.0447 11.4775 71.5741 11.0914 71.0236 10.8633C70.4731 10.6353 69.8673 10.5756 69.2828 10.6919C68.6984 10.8081 68.1615 11.0951 67.7402 11.5164C67.3188 11.9378 67.0318 12.4747 66.9156 13.0591C66.7993 13.6436 66.859 14.2494 67.087 14.7999C67.3151 15.3504 67.7012 15.821 68.1967 16.1521Z" fill="#F8F8F8" stroke="black" stroke-width="0.853218"/>
<path d="M46.592 15.8068L46.5916 15.8068C45.1072 15.8083 43.6839 16.3987 42.6343 17.4483C41.5846 18.498 40.9943 19.9212 40.9928 21.4056V21.4061V62.7872V62.7876C40.9943 64.272 41.5846 65.6952 42.6343 66.7449C43.6839 67.7946 45.1072 68.3849 46.5916 68.3864H46.592H51.3381V72.7058L46.5935 72.7058C46.5931 72.7058 46.5927 72.7058 46.5923 72.7058C45.18 72.7009 43.7851 72.3926 42.5023 71.8016C41.2192 71.2105 40.0781 70.3505 39.1564 69.2798L38.8331 68.9042L38.5098 69.2798C37.5881 70.3505 36.447 71.2105 35.1638 71.8016C33.881 72.3926 32.4862 72.7009 31.0738 72.7058C31.0734 72.7058 31.0731 72.7058 31.0727 72.7058L28.4883 72.7058C22.4299 72.6991 16.6217 70.2895 12.3378 66.0056C8.05396 61.7217 5.64433 55.9136 5.63755 49.8553V34.3379C5.64433 28.2796 8.05396 22.4715 12.3378 18.1876C16.6216 13.9038 22.4298 11.4942 28.488 11.4874H31.0734C32.4859 11.4922 33.8809 11.8006 35.1638 12.3916C36.447 12.9827 37.5881 13.8427 38.5098 14.9134L38.8331 15.289L39.1564 14.9134C40.0781 13.8427 41.2192 12.9827 42.5023 12.3916C43.7853 11.8006 45.1802 11.4922 46.5927 11.4874H51.3381V15.8068L46.592 15.8068ZM28.487 68.3864H28.4878H31.0741H31.0745C32.559 68.3849 33.9822 67.7946 35.0319 66.7449C36.0815 65.6952 36.6719 64.272 36.6734 62.7876V62.7872V52.4419V52.0153H36.2468H31.0741C30.275 52.0153 29.5087 52.3327 28.9437 52.8977C28.3786 53.4628 28.0612 54.2291 28.0612 55.0282V59.7742H23.7418V55.0286C23.7437 53.0844 24.5169 51.2205 25.8916 49.8457C27.2664 48.471 29.1304 47.6978 31.0745 47.6959H36.2468H36.6734V47.2692V36.924V36.4974H36.2468H31.5007V32.1779H36.2468H36.6734V31.7513V21.4061V21.4056C36.6719 19.9212 36.0815 18.498 35.0319 17.4483C33.9822 16.3987 32.559 15.8083 31.0745 15.8068H31.0741L28.4878 15.8068L28.487 15.8068C24.0356 15.8148 19.7355 17.4238 16.3723 20.3399C13.009 23.256 10.8069 27.2847 10.1683 31.6901L10.0976 32.1779H10.5905H18.1425C18.9416 32.1779 19.708 31.8605 20.273 31.2955C20.838 30.7304 21.1555 29.9641 21.1555 29.165V24.419H25.4749V29.1646C25.4729 31.1088 24.6998 32.9728 23.325 34.3475C21.9503 35.7222 20.0863 36.4954 18.1421 36.4974H10.3836H9.95696V36.924V47.2692V47.6959H10.3836H15.1296V52.0153H10.5905H10.0976L10.1683 52.5031C10.8069 56.9085 13.009 60.9372 16.3723 63.8533C19.7355 66.7694 24.0356 68.3784 28.487 68.3864Z" fill="#F8F8F8" stroke="black" stroke-width="0.853218"/>
</svg>
