<svg width="76" height="76" viewBox="0 0 76 76" fill="none" xmlns="http://www.w3.org/2000/svg">
<path d="M18.8142 19.0054V15.8769C18.8142 6.4915 23.5069 3.36304 31.3281 3.36304H43.842C51.6631 3.36304 56.3558 8.05574 56.3558 15.8769V19.0054C65.7412 19.0054 71.9982 25.2623 71.9982 34.6477C71.9982 44.0331 65.7412 50.2901 56.3558 50.2901M18.8142 19.0054H43.842M18.8142 19.0054C9.42881 19.0054 3.17188 23.6981 3.17188 34.6477C3.17188 45.5973 9.42881 50.2901 18.8142 50.2901M37.585 59.6755V72.1893M28.1996 72.1893H46.9704M25.0711 59.6755H50.0989V37.7762H25.0711V59.6755Z" stroke="#F8F8F8" stroke-width="1.70644"/>
</svg>
