<svg width="2388" height="3217" viewBox="0 0 2388 3217" fill="none" xmlns="http://www.w3.org/2000/svg">
<g opacity="0.2">
<path d="M1207.59 3217C1587.69 3217 1895.82 3158.46 1895.82 3086.25C1895.82 3014.04 1587.69 2955.51 1207.59 2955.51C827.497 2955.51 519.368 3014.04 519.368 3086.25C519.368 3158.46 827.497 3217 1207.59 3217Z" fill="#371A45"/>
</g>
<path d="M399.668 1365.21C413.387 1325.8 414.814 1281.76 400.851 1239.04C366.959 1135.34 255.421 1078.76 151.725 1112.65C48.0291 1146.54 -8.55891 1258.08 25.3341 1361.77C59.2261 1465.47 170.764 1522.06 274.46 1488.17C303.303 1478.74 328.486 1463.29 349.107 1443.69L442.788 1444.35L399.668 1365.21Z" fill="#FF0068"/>
<g opacity="0.5">
<path d="M163.528 1148.76C260.395 1117.1 364.083 1164.41 404.951 1255.3C403.499 1248.49 401.717 1241.69 399.504 1234.92C365.612 1131.22 254.075 1074.64 150.378 1108.53C46.682 1142.42 -9.90596 1253.96 23.987 1357.65C26.209 1364.45 28.7831 1371.03 31.6481 1377.42C10.8891 1279.9 66.6301 1180.43 163.528 1148.76Z" fill="white"/>
</g>
<path d="M213.242 1512.93C123.789 1512.93 40.371 1455.96 11.108 1366.43C-6.52895 1312.47 -2.09492 1254.88 23.5831 1204.26C49.2671 1153.64 93.119 1116.06 147.074 1098.42C201.019 1080.79 258.612 1085.21 309.232 1110.9C359.852 1136.58 397.44 1180.44 415.072 1234.39C428.944 1276.82 429.208 1321.4 415.912 1363.75L455.927 1437.19C458.466 1441.84 458.349 1447.49 455.629 1452.04C452.924 1456.55 448.046 1459.31 442.787 1459.31C442.753 1459.31 442.719 1459.31 442.68 1459.31L354.916 1458.69C332.929 1478.44 307.45 1493.13 279.105 1502.39C257.265 1509.53 235.068 1512.92 213.242 1512.93ZM213.281 1117.75C194.199 1117.75 175.034 1120.78 156.372 1126.87C60.6881 1158.15 8.28611 1261.44 39.5561 1357.13C70.8401 1452.81 174.121 1505.21 269.81 1473.94C295.85 1465.43 319.058 1451.6 338.794 1432.84C341.577 1430.19 345.269 1428.72 349.107 1428.72C349.141 1428.72 349.175 1428.72 349.214 1428.72L417.49 1429.2L386.528 1372.37C384.507 1368.66 384.145 1364.27 385.532 1360.29C398.76 1322.3 399.14 1281.98 386.626 1243.69C371.475 1197.33 339.18 1159.66 295.693 1137.59C269.712 1124.41 241.592 1117.75 213.281 1117.75Z" fill="#371A45"/>
<g opacity="0.3">
<path d="M400.35 1363.12C357.174 1419.31 288.579 1454.7 212.338 1452.38C127.786 1449.82 55.4281 1401.55 18.0881 1332.02C19.7121 1341.96 22.1071 1351.9 25.3341 1361.77C59.2261 1465.47 170.764 1522.06 274.46 1488.17C303.303 1478.74 328.486 1463.29 349.106 1443.69L442.787 1444.35L399.668 1365.21C399.909 1364.52 400.117 1363.81 400.35 1363.12Z" fill="#371A45"/>
</g>
<path d="M273.419 1243.37C255.67 1226.95 228.095 1231.09 211.68 1248.84L209.125 1251.6L206.362 1249.05C188.613 1232.64 160.798 1230.66 144.384 1248.41C127.969 1266.15 129.051 1293.85 146.8 1310.26L149.563 1312.82L205.366 1364.43C210.045 1368.75 217.346 1368.47 221.674 1363.79L273.281 1307.99L275.836 1305.22C292.25 1287.47 291.168 1259.78 273.419 1243.37Z" fill="white"/>
<path d="M1730.45 1597.9V2250.23C1730.45 2337.14 1660.08 2407.5 1573.18 2407.5H885.462C798.683 2407.5 728.239 2337.13 728.239 2250.23V1597.9C728.239 1561.34 740.773 1527.5 761.873 1500.84C762.04 1500.59 762.249 1500.34 762.458 1500.09C778.669 1479.74 799.769 1463.49 824.044 1453.17C842.929 1445.15 863.653 1440.72 885.462 1440.72H1573.18C1595.12 1440.72 1616.01 1445.19 1634.93 1453.34C1650.43 1459.9 1664.6 1468.92 1677.05 1479.87C1678.43 1481.04 1679.76 1482.25 1681.06 1483.5C1711.48 1512.17 1730.45 1552.82 1730.45 1597.9Z" fill="white"/>
<path d="M1585.88 2424.22H872.818C783.887 2424.22 711.534 2351.87 711.534 2262.94V1585.28C711.534 1496.35 783.888 1424 872.818 1424H1585.88C1674.82 1424 1747.17 1496.35 1747.17 1585.28V2262.94C1747.17 2351.87 1674.82 2424.22 1585.88 2424.22ZM872.817 1457.42C802.314 1457.42 744.961 1514.78 744.961 1585.28V2262.94C744.961 2333.44 802.315 2390.8 872.817 2390.8H1585.88C1656.39 2390.8 1713.74 2333.44 1713.74 2262.94V1585.28C1713.74 1514.78 1656.39 1457.42 1585.88 1457.42H872.817Z" fill="#371A45"/>
<path d="M1482.57 1425.04C1482.57 1425.04 1816.49 1707.78 1875.19 1380.66L2141.67 1480.89C2141.67 1480.89 2147.93 1835.21 1863.91 1897.1C1693.12 1934.31 1588.2 1891.71 1588.2 1891.71L1482.57 1425.04Z" fill="white"/>
<g opacity="0.25">
<path d="M1571.33 1700.33L1588.2 1891.71C1588.2 1891.71 1693.14 1934.31 1863.9 1897.09C2147.93 1835.21 2141.64 1480.87 2141.64 1480.87L1889.18 1484.58C2143.35 1577.9 2000.97 1737.01 1812.9 1777.97C1689.44 1804.87 1607.36 1738.95 1571.33 1700.33Z" fill="#371A45"/>
</g>
<path d="M1734.41 1927.87C1632.66 1927.87 1566.26 1902.4 1562.47 1900.91C1553.88 1897.53 1549.65 1887.83 1553.03 1879.24C1556.4 1870.65 1566.11 1866.43 1574.69 1869.8C1575.88 1870.26 1697.06 1916.35 1860.35 1880.77C1971.81 1856.48 2050.16 1782.58 2093.22 1661.12C2119.09 1588.15 2123.9 1518.8 2124.78 1492.39L1887.66 1403.2C1870.16 1479.52 1834.85 1527.68 1782.52 1546.5C1656.02 1592.03 1479.23 1444.11 1471.77 1437.79C1464.73 1431.83 1463.86 1421.28 1469.82 1414.24C1475.78 1407.19 1486.32 1406.32 1493.37 1412.28C1495.05 1413.7 1662.88 1554.06 1771.25 1515.04C1815.84 1498.98 1845.27 1452.78 1858.75 1377.71L1862.29 1357.95L2158.17 1469.25L2158.37 1480.6C2158.44 1484.34 2159.6 1573.31 2125.06 1671.34C2078.63 1803.11 1989.56 1886.82 1867.47 1913.42C1818.85 1924.02 1773.95 1927.87 1734.41 1927.87Z" fill="#371A45"/>
<path d="M1840.38 1370.73C1882.66 1546.17 2059.65 1529.82 2108.37 1517.97C2209.98 1493.22 2244.85 1397.46 2244.85 1397.46L2162.89 1289.14L2126.45 1230.52L2082.92 1217.44C2048.71 1155.1 1975.86 1084.4 1934.02 1109.34C1934.02 1109.34 1803.94 1219.5 1840.38 1370.73Z" fill="white"/>
<g opacity="0.25">
<path d="M2259.94 1340.82C2259.94 1395.49 2188.34 1445.08 2034.2 1427.11C1979.9 1420.78 1935.22 1382.8 1935.22 1328.14C1935.22 1273.47 1979.54 1229.16 2034.2 1229.16C2088.86 1229.16 2259.94 1286.16 2259.94 1340.82Z" fill="#371A45"/>
</g>
<path d="M1988.38 1163.49L2065.02 1350.71L2178.6 1234.44C2178.6 1234.44 2213.28 1205.15 2253.2 1165.18C2319.91 1098.42 2401.35 1001.81 2359.88 962.637C2289.53 896.12 2113.87 1130.3 2113.87 1130.3C2113.87 1130.3 2186.68 840.53 2076.65 833.694C2016.12 829.902 1997.01 973.665 1991.07 1072.57C1987.93 1124.12 1988.38 1163.49 1988.38 1163.49Z" fill="white"/>
<g opacity="0.25">
<path d="M1988.38 1163.49L2065.02 1350.71L2178.6 1234.44C2178.6 1234.44 2213.28 1205.15 2253.2 1165.18C2201.6 1175.86 2133.79 1184.54 2094.61 1167.83C2058.59 1152.46 2035.93 1087.59 1991.07 1072.57C1987.93 1124.12 1988.38 1163.49 1988.38 1163.49Z" fill="#371A45"/>
</g>
<path d="M2065.02 1367.44C2063.95 1367.44 2062.88 1367.34 2061.82 1367.13C2056.29 1366.05 2051.68 1362.27 2049.55 1357.06L1972.91 1169.84C1972.11 1167.89 1971.69 1165.8 1971.66 1163.69C1971.36 1136.4 1970.55 895.264 2035.79 833.25C2047.97 821.678 2062.46 816.07 2077.69 817.005C2098.76 818.314 2116.58 828.148 2129.22 845.445C2164.83 894.151 2155.58 997.474 2143.94 1066.95C2190.65 1013.36 2265.06 939.243 2322.97 934.314C2341.75 932.708 2358.49 938.313 2371.38 950.503C2382.62 961.126 2388.31 975.576 2387.85 992.288C2385.45 1078.28 2212.77 1227.42 2190.01 1246.71L2076.97 1362.4C2073.8 1365.65 2069.47 1367.44 2065.02 1367.44ZM2005.06 1160.14L2070.84 1320.85L2166.65 1222.79C2167.03 1222.41 2167.41 1222.05 2167.82 1221.7C2219.15 1178.3 2352.74 1052.32 2354.43 991.352C2354.7 981.855 2351.13 977.351 2348.42 974.789C2342.4 969.101 2335.24 966.832 2325.81 967.616C2265.41 972.75 2161.99 1094.04 2127.24 1140.34C2122.46 1146.71 2113.86 1148.82 2106.68 1145.4C2099.49 1141.98 2095.73 1133.96 2097.66 1126.25C2111.55 1070.89 2139.46 916.068 2102.23 865.164C2095.36 855.767 2086.9 851.062 2075.62 850.362C2071.84 850.145 2066.04 850.611 2058.82 857.474C2013.09 900.938 2004.55 1087.6 2005.06 1160.14Z" fill="#371A45"/>
<path d="M2265.63 1377.2C2238.68 1421.01 2124.26 1441.47 2081.79 1408.54C2045.67 1380.49 2081.74 1344.76 2092.02 1335.68C2093.62 1334.24 2094.62 1333.49 2094.62 1333.49C2094.62 1333.49 2050.66 1320.02 2042.97 1282.99C2042.47 1280.59 2042.12 1278.1 2041.97 1275.45C2039.28 1232.74 2153.35 1195.86 2205.15 1204.2C2243.87 1210.43 2258.64 1226.2 2262.28 1243.07C2266.18 1261.03 2257.44 1280.25 2251.61 1290.52C2248.91 1295.22 2246.87 1298.01 2246.87 1298.01C2246.87 1298.01 2287.23 1342.12 2265.63 1377.2Z" fill="white"/>
<g opacity="0.25">
<path d="M2251.61 1290.52C2221.02 1306.19 2159.69 1332.84 2092.02 1335.68C2093.62 1334.24 2094.62 1333.49 2094.62 1333.49C2094.62 1333.49 2050.66 1320.02 2042.97 1282.99C2083.54 1291.87 2195.62 1308.79 2262.28 1243.07C2266.18 1261.03 2257.44 1280.24 2251.61 1290.52Z" fill="#371A45"/>
</g>
<g opacity="0.25">
<path d="M2265.63 1377.2C2238.68 1421.01 2124.26 1441.47 2081.79 1408.54C2064.03 1394.76 2063.73 1379.15 2069.22 1365.72C2071.16 1367.87 2073.46 1370.01 2076.16 1372.11C2118.57 1405.04 2232.99 1384.59 2259.94 1340.82C2262.73 1336.28 2264.53 1331.59 2265.43 1326.85C2272.16 1341.87 2275.86 1360.53 2265.63 1377.2Z" fill="#371A45"/>
</g>
<path d="M2143.96 1441.56C2114.01 1441.56 2088.31 1434.73 2071.57 1421.75C2053.27 1407.56 2049.39 1391.5 2049.37 1380.52C2049.34 1364.07 2057.68 1349.32 2066.27 1338.5C2048.69 1327.77 2027.34 1308.32 2025.32 1276.54C2024.67 1266.44 2027.64 1251.02 2045.41 1234.87C2083.38 1200.37 2165.28 1180.84 2207.82 1187.68C2243.67 1193.45 2266.52 1207.76 2275.74 1230.2C2286.1 1255.44 2275.34 1282.16 2267.24 1296.88C2279.89 1314.52 2300.76 1352.05 2279.86 1385.98C2264.92 1410.26 2229.14 1429.63 2184.17 1437.79C2170.24 1440.32 2156.71 1441.56 2143.96 1441.56ZM2188.53 1219.69C2151.68 1219.69 2093.51 1236.33 2067.89 1259.6C2061.79 1265.15 2058.43 1270.55 2058.68 1274.42C2060.62 1304.9 2099.18 1317.41 2099.57 1317.53C2105.49 1319.4 2109.92 1324.39 2111.03 1330.5C2112.13 1336.6 2109.8 1342.83 2104.92 1346.65C2099.18 1351.19 2082.73 1367.22 2082.79 1380.5C2082.81 1383.8 2083.79 1388.93 2092.06 1395.34C2108.06 1407.75 2141.86 1411.51 2178.2 1404.9C2212.92 1398.6 2241.65 1384.29 2251.41 1368.46C2265.86 1344.99 2234.81 1309.63 2234.5 1309.28C2229.17 1303.4 2228.68 1294.55 2233.36 1288.15C2238.68 1280.79 2251.16 1258.21 2244.8 1242.83C2239.16 1229.24 2218.69 1223.29 2202.51 1220.68C2198.36 1220.01 2193.65 1219.69 2188.53 1219.69Z" fill="#371A45"/>
<path d="M2108.98 1350.62C2103.93 1350.62 2098.82 1350.48 2093.64 1350.17C2084.42 1349.63 2077.39 1341.72 2077.93 1332.51C2078.48 1323.3 2086.26 1316.22 2095.6 1316.8C2172.84 1321.32 2237.73 1283.99 2238.38 1283.62C2246.33 1278.96 2256.58 1281.61 2261.24 1289.56C2265.92 1297.51 2263.29 1307.73 2255.34 1312.42C2252.54 1314.07 2189.61 1350.62 2108.98 1350.62Z" fill="#371A45"/>
<path d="M1934.03 1109.36C1989.57 1076.25 2099.64 1211.51 2101.66 1272.22C2103.21 1318.56 2048.32 1357.22 1982.73 1298.09C1916.27 1238.18 1846.81 1161.37 1934.03 1109.36Z" fill="white"/>
<path d="M2244.85 1397.48C2244.85 1397.48 2209.97 1493.21 2108.39 1517.96C2059.66 1529.83 1882.66 1546.18 1840.38 1370.72C1803.94 1219.5 1934.03 1109.36 1934.03 1109.36C1989.57 1076.25 2099.64 1211.51 2101.66 1272.22C2103.21 1318.56 2034.34 1344.84 1976.65 1263.3C1976.65 1263.3 2007.04 1337.36 1942.15 1387.9L2095.05 1475.97L2210.67 1453.4L2244.85 1397.48Z" fill="white"/>
<path d="M1972.36 1352.4L1969.32 1350.66C1971.61 1348.86 1973.71 1347.11 1975.71 1345.27C1974.71 1347.61 1973.61 1350.01 1972.36 1352.4Z" fill="white"/>
<g opacity="0.25">
<path d="M1979.05 1249.56C1970.92 1219.62 2056.91 1295.84 2101.65 1276.25C2099.51 1313.88 2049.96 1335.73 2000.51 1290.67C1997.56 1266.57 1979.05 1249.56 1979.05 1249.56Z" fill="#371A45"/>
</g>
<g opacity="0.25">
<path d="M2191.18 1457.19L2210.69 1453.4C2189.13 1479.05 2156.1 1506.34 2108.39 1517.97C2059.64 1529.85 1882.64 1546.16 1840.38 1370.71C1815.58 1267.82 1867.92 1183.89 1903.9 1140.82C1874.61 1187.53 1848.61 1255 1867.52 1333.49C1909.79 1508.94 2086.78 1492.62 2135.54 1480.74C2156.94 1475.51 2175.41 1467.17 2191.18 1457.19Z" fill="#371A45"/>
</g>
<path d="M2244.82 1397.56C2244.47 1398.51 2241.68 1405.84 2235.84 1416.57L2232.84 1417.17L2244.82 1397.56Z" fill="white"/>
<path d="M2237.83 1416.17C2236.24 1418.07 2234.59 1420.02 2232.84 1421.91C2233.89 1420.07 2234.89 1418.27 2235.84 1416.57L2237.83 1416.17Z" fill="white"/>
<path d="M1912.08 1491.4C1903.07 1488.08 1894.61 1483.33 1886.89 1477.56C1879.09 1471.88 1871.93 1465.22 1865.65 1457.82C1852.94 1443.06 1843.91 1425.61 1836.7 1407.87C1822.61 1372.45 1815.99 1333.54 1819.14 1295.01C1820.67 1275.79 1824.4 1256.78 1830.15 1238.48C1835.93 1220.19 1843.61 1202.63 1852.61 1185.88C1861.67 1169.16 1872.09 1153.27 1883.68 1138.3C1889.46 1130.81 1895.52 1123.54 1901.91 1116.5C1905.11 1112.99 1908.35 1109.51 1911.76 1106.14C1915.24 1102.68 1918.43 1099.57 1922.63 1095.9L1923.12 1095.49C1923.69 1094.98 1924.35 1094.55 1925 1094.22C1927.95 1092.73 1930.9 1091.11 1933.99 1089.98C1937.12 1089.07 1940.32 1087.82 1943.49 1087.47C1946.65 1087.05 1949.91 1086.48 1952.94 1086.64C1956.04 1086.63 1959.14 1086.68 1961.99 1087.18C1973.72 1088.73 1983.81 1092.71 1992.98 1097.32C2002.18 1101.95 2010.33 1107.5 2018.07 1113.36C2025.83 1119.21 2032.99 1125.52 2039.81 1132.09C2053.48 1145.21 2065.63 1159.49 2076.79 1174.54C2087.81 1189.7 2097.83 1205.63 2106.08 1223.1C2110.17 1231.89 2113.81 1241.04 2116.42 1251.11C2117.72 1256.15 2118.8 1261.38 2119.27 1267.14C2119.95 1272.65 2119.62 1279.34 2118.43 1285.43C2116.15 1297.93 2109.16 1309.7 2099.63 1318.07C2090.02 1326.38 2078.08 1331.36 2066.32 1332.82C2054.49 1334.49 2042.95 1332.84 2032.46 1329.65C2021.94 1326.41 2012.52 1321.34 2004.02 1315.53C1987.03 1303.73 1974.06 1288.66 1963.04 1272.99L1963.01 1272.94L1992.11 1256.95C1993.42 1261.05 1994.02 1263.91 1994.71 1267.28C1995.36 1270.52 1995.86 1273.75 1996.24 1276.98C1997.07 1283.42 1997.31 1289.89 1997.29 1296.33C1997.09 1309.22 1994.93 1322.11 1990.74 1334.23C1988.91 1340.36 1985.87 1346.09 1983.09 1351.74C1979.72 1357.15 1976.59 1362.61 1972.4 1367.3C1968.7 1372.35 1964.04 1376.48 1959.62 1380.72C1957.52 1382.95 1954.89 1384.58 1952.5 1386.44L1945.23 1391.84C1943.02 1393.48 1939.9 1393.02 1938.26 1390.81C1936.79 1388.84 1937 1386.13 1938.65 1384.4L1939.08 1383.95L1944.84 1377.92C1946.69 1375.87 1948.79 1374.07 1950.29 1371.76C1953.54 1367.35 1956.96 1363.16 1959.33 1358.32C1962.22 1353.8 1963.98 1348.75 1966 1343.94C1967.44 1338.87 1969.14 1333.96 1969.72 1328.77C1971.4 1318.55 1971.36 1308.14 1969.77 1297.96C1968.9 1292.87 1967.85 1287.84 1966.34 1282.97C1965.62 1280.51 1964.81 1278.12 1963.91 1275.8C1963.07 1273.6 1961.94 1270.94 1961.19 1269.64C1956.68 1261.76 1959.41 1251.72 1967.28 1247.2C1974.36 1243.15 1983.18 1244.94 1988.17 1251.05L1990.29 1253.65L1990.32 1253.68C1999.98 1266.8 2011.05 1278.66 2023.54 1286.89C2035.79 1295.28 2049.77 1299.74 2061.47 1297.93C2067.32 1297.16 2072.35 1294.72 2076.17 1291.41C2079.85 1287.96 2082.47 1283.67 2083.29 1278.61C2083.68 1275.99 2083.96 1273.71 2083.48 1270.4C2083.21 1267.3 2082.48 1263.8 2081.52 1260.26C2079.56 1253.15 2076.64 1245.73 2073.3 1238.39C2059.36 1208.98 2038.63 1180.95 2014.99 1157.78C2009.05 1151.99 2002.88 1146.53 1996.46 1141.66C1990.08 1136.77 1983.47 1132.28 1976.8 1128.91C1970.16 1125.5 1963.42 1123.05 1957.51 1122.28C1951.53 1121.51 1946.96 1122.29 1943.06 1124.5L1945.42 1122.82C1942.82 1125.07 1939.5 1128.21 1936.58 1131.1C1933.58 1134.07 1930.62 1137.14 1927.69 1140.24C1921.85 1146.47 1916.26 1152.98 1910.92 1159.68C1900.21 1173.07 1890.56 1187.3 1882.21 1202.17C1865.51 1231.9 1854.18 1264.43 1850.77 1297.87C1847.23 1331.24 1852.15 1365.43 1863.92 1397.3C1866.82 1405.23 1870.35 1412.86 1874.17 1420.31C1878.06 1427.72 1882.38 1434.84 1886.8 1441.95C1895.76 1456.16 1906.17 1469.39 1917.63 1483.52L1917.67 1483.58C1919.41 1485.72 1919.08 1488.86 1916.94 1490.59C1915.53 1491.74 1913.67 1491.98 1912.08 1491.4Z" fill="#371A45"/>
<path d="M2260.56 1403.21C2258.7 1408.03 2257.14 1411.66 2255.18 1415.6C2253.3 1419.46 2251.24 1423.18 2249.16 1426.87C2247.09 1430.57 2244.78 1434.11 2242.6 1437.72C2240.26 1441.24 2237.81 1444.68 2235.37 1448.12C2225.37 1461.71 2213.62 1474.02 2200.64 1484.81C2194.31 1490.4 2187.17 1495.01 2180.32 1499.87C2172.92 1503.99 2165.87 1508.57 2158.06 1511.79C2143.15 1519.37 2126.44 1523.83 2109.44 1522.27C2106.87 1522.03 2104.97 1519.75 2105.21 1517.18C2105.34 1515.83 2106.02 1514.67 2107.01 1513.9L2107.34 1513.65C2120.56 1503.51 2134.02 1498.26 2146.54 1490.23C2152.99 1486.7 2158.64 1481.86 2164.59 1477.66C2170.11 1472.82 2175.87 1468.35 2180.87 1462.97C2191.23 1452.69 2200.54 1441.36 2208.68 1429.23L2214.57 1420.01C2216.38 1416.85 2218.34 1413.77 2220.04 1410.57C2221.77 1407.37 2223.46 1404.17 2224.97 1400.93C2226.49 1397.82 2228.13 1394.26 2229.15 1391.76L2229.49 1390.92C2232.97 1382.38 2242.72 1378.27 2251.26 1381.75C2259.7 1385.18 2263.8 1394.74 2260.56 1403.21Z" fill="#371A45"/>
<path d="M1907.22 1887.64C1883.19 1887.64 1862.07 1879.97 1844.1 1864.7C1752.46 1786.77 1780.48 1532.28 1781.72 1521.48C1782.5 1514.61 1788.72 1509.67 1795.6 1510.46C1802.47 1511.25 1807.41 1517.46 1806.62 1524.34C1806.34 1526.85 1778.84 1776.31 1860.34 1845.6C1880.7 1862.91 1906.11 1866.93 1938.03 1857.91C1944.67 1856.02 1951.62 1859.9 1953.5 1866.56C1955.39 1873.22 1951.51 1880.15 1944.85 1882.03C1931.63 1885.77 1919.07 1887.64 1907.22 1887.64Z" fill="#371A45"/>
<path d="M947.465 277.905C947.34 281.54 947.214 283.546 947.214 283.546C947.214 283.546 797.345 404.168 777.122 671.359C753.14 988.896 387.846 989.899 366.204 978.117C346.734 967.463 488.748 920.501 457.245 679.883C453.777 653.268 448.178 624.314 439.989 592.727C336.706 194.385 503.831 -3.03194 753.139 18.6111C946.128 35.3231 948.593 241.013 947.465 277.905Z" fill="#875245"/>
<g opacity="0.35">
<path d="M781.51 75.728C782.889 78.318 783.724 81.034 784.017 83.875C786.482 108.568 745.16 132.926 691.681 138.274C638.159 143.622 592.827 127.912 590.361 103.22C590.194 101.757 590.236 100.337 590.361 98.875C467.858 154.319 396.496 294.035 422.526 513.554C360.063 168.316 520.963 -1.52494 753.141 18.6141C910.74 32.2761 941.282 171.951 946.588 242.812C930.92 175.292 889.431 93.651 781.51 75.728Z" fill="white"/>
</g>
<path d="M947.465 277.905C947.34 281.54 947.214 283.546 947.214 283.546C947.214 283.546 797.345 404.168 777.122 671.359C753.14 988.896 387.846 989.899 366.204 978.117C346.734 967.463 488.748 920.501 457.245 679.883C526.769 744.226 599.301 746.817 625.749 685.649C676.388 568.411 601.725 369.699 684.744 231.946C743.74 133.969 891.604 148.342 947.465 277.905Z" fill="#7A453B"/>
<path d="M401.821 998.006C379.428 998.006 363.711 995.772 358.208 992.769C352.432 989.62 348.647 984.266 347.822 978.084C346.318 966.766 354.062 959.349 364.78 949.085C397.715 917.547 485.2 833.772 423.803 596.922C368.613 384.039 387.074 209.014 475.785 104.09C539.95 28.1991 638.905 -8.06597 754.579 1.95403C980.502 21.554 964.076 282.135 963.886 284.764L963.354 292.01L957.705 296.556C955.649 298.241 813.125 417.122 793.804 672.635C784.688 793.221 725.415 886.566 622.388 942.579C542.925 985.782 454.17 998.003 401.821 998.006ZM396.513 964.866C443.515 965.296 548.051 954.253 633.549 896.804C710.297 845.232 753.002 768.962 760.473 670.115C778.945 425.799 901.923 301.621 930.859 275.589C932.006 236.773 928.222 50.57 751.689 35.255C645.717 26.063 559.096 57.32 501.308 125.67C419.804 222.074 403.769 386.456 456.157 588.534C517.798 826.324 437.676 923.975 396.513 964.866Z" fill="#371A45"/>
<path d="M910.737 447.186C958.337 390.7 962.293 315.726 919.574 279.727C876.855 243.728 803.636 260.336 756.037 316.822C708.437 373.308 704.48 448.282 747.2 484.281C789.919 520.28 863.137 503.672 910.737 447.186Z" fill="#22A7F0"/>
<path d="M801.88 519.742C777.559 519.742 754.658 512.381 736.382 496.981C686.685 455.106 689.741 369.42 743.194 305.973C796.651 242.535 880.582 224.977 930.279 266.857C955.045 287.721 967.608 319.579 965.655 356.562C963.8 391.804 948.814 427.78 923.463 457.866C889.668 497.974 843.681 519.742 801.88 519.742ZM864.375 277.203C832.49 277.203 796.055 295.116 768.755 327.511C727.178 376.864 722.315 441.42 757.915 471.42C793.535 501.423 856.318 485.68 897.905 436.327C918.593 411.774 930.801 382.821 932.275 354.804C933.662 328.53 925.302 306.374 908.745 292.419C896.509 282.11 881.064 277.203 864.375 277.203Z" fill="#371A45"/>
<path d="M569.005 2177.88C569.005 2177.88 517.338 2338.96 687.139 2373.56C717.708 2379.81 746.987 2377.28 773.089 2367.7C885.787 2326.2 940.253 2152.47 792.303 1978.64C784.499 1969.43 776.103 1960.23 767.115 1951.03C766.738 1950.65 766.361 1950.27 765.985 1949.9C765.985 1949.9 773.843 1936.87 798.976 1918.57C814.745 1907.06 837.403 1893.44 869.103 1879.66L929.973 1693.45L930.081 1693.12L1006.67 1459.06C1006.67 1459.06 946.334 1479.51 869.264 1514.44C836.757 1529.13 801.182 1546.46 765.984 1565.94C765.984 1565.94 749.246 1574.93 723.089 1591.19C589.134 1674.56 208.467 1948.39 569.005 2177.88Z" fill="white"/>
<g opacity="0.25">
<path d="M887.271 1728.15L869.11 1879.66C786.812 1915.37 765.966 1949.87 765.966 1949.87C766.356 1950.26 766.746 1950.65 767.093 1951.04C745.034 1932.84 715.434 1912.04 684.361 1900.38C684.361 1900.38 741.653 1868.92 760.765 1846.42C843.193 1749.39 821.973 1691.81 899.461 1701.69C911.64 1703.25 895.318 1711.49 887.271 1728.15Z" fill="#371A45"/>
</g>
<path d="M719.809 2393.62C707.958 2393.62 695.917 2392.42 683.808 2389.95C628.163 2378.6 588.456 2353.21 565.776 2314.48C537.177 2265.62 544.492 2209.85 549.834 2185.34C448.154 2117.78 398.213 2040.11 401.367 1954.35C409.199 1741.21 743.794 1558.86 758.037 1551.2C876.455 1485.86 1000.06 1443.68 1001.29 1443.26C1010.03 1440.3 1019.52 1444.98 1022.48 1453.72C1025.44 1462.46 1020.76 1471.95 1012.02 1474.91C1010.82 1475.32 889.912 1516.61 774.028 1580.56C770.551 1582.43 441.86 1761.56 434.765 1955.61C431.992 2031.48 480.175 2101.51 577.968 2163.77L588.847 2170.7L584.907 2182.97C584.717 2183.58 565.088 2247.4 594.741 2297.79C612.436 2327.86 644.648 2347.85 690.488 2357.2C753.515 2370.05 812.26 2342.03 843.725 2284.06C882.851 2211.96 879.843 2089.37 754.042 1961.57L744.921 1952.31L751.654 1941.19C753.783 1937.68 774.515 1905.88 846.385 1871.66C854.696 1867.7 864.691 1871.22 868.656 1879.56C872.626 1887.9 869.086 1897.87 860.751 1901.84C820.692 1920.91 798.969 1938.73 788.466 1949.17C916.503 2086.14 916.762 2219.54 873.1 2300C840.962 2359.23 783.159 2393.62 719.809 2393.62Z" fill="#371A45"/>
<path d="M580.747 2164.55C587.241 2168.25 593.984 2172.3 600.596 2176.3L620.581 2188.41L661.196 2212.97C653.086 2212.84 645.053 2211.85 637.055 2210.68C629.086 2209.4 621.196 2207.76 613.388 2205.86C605.605 2203.91 597.836 2201.84 590.234 2199.35C582.563 2196.93 575.097 2194.38 567.524 2191.19L580.747 2164.55Z" fill="#371A45"/>
<g opacity="0.25">
<path d="M687.129 2373.58C519.347 2339.37 567.82 2181.64 568.948 2177.89L568.999 2177.84C568.999 2177.84 598.134 2333.98 749.81 2291.15C846.807 2263.71 838.6 2127.01 820.083 2032.07C821.724 2028.32 823.058 2024.42 824.135 2020.47C824.135 2020.47 824.135 2020.47 824.186 2020.47C958.063 2219.65 839.061 2404.56 687.129 2373.58Z" fill="#371A45"/>
</g>
<path d="M455.659 2092.26C446.445 2092.26 438.97 2084.81 438.945 2075.59C438.823 2026.11 479.629 1974.94 542.905 1945.25C614.355 1911.73 722.934 1902.83 813.418 1978.41C820.503 1984.33 821.45 1994.86 815.532 2001.95C809.619 2009.03 799.072 2009.98 791.992 2004.06C713.554 1938.55 619.223 1946.36 557.104 1975.51C505.541 1999.71 472.28 2038.96 472.373 2075.51C472.393 2084.74 464.932 2092.24 455.703 2092.26C455.688 2092.26 455.674 2092.26 455.659 2092.26Z" fill="#371A45"/>
<path d="M761.767 1961.58C756.308 1955.83 750.175 1949.92 744.135 1944.27C738.031 1938.59 731.781 1933.06 725.385 1927.66C712.538 1916.94 699.155 1906.79 684.36 1898.37C700.976 1902.16 717.265 1908.19 733.154 1914.97C741.089 1918.41 748.955 1922.04 756.743 1925.87C764.575 1929.75 772.148 1933.62 780.049 1938.12L761.767 1961.58Z" fill="#371A45"/>
<path d="M1086.9 2937.05C1083.86 2937.05 1080.79 2936.23 1078.02 2934.49C996.103 2883.04 875.791 2905.79 874.594 2906.03C865.531 2907.81 856.762 2901.91 854.98 2892.85C853.203 2883.8 859.086 2875.02 868.134 2873.24C873.588 2872.17 1002.53 2847.6 1095.81 2906.19C1103.62 2911.1 1105.98 2921.41 1101.06 2929.23C1097.89 2934.28 1092.46 2937.05 1086.9 2937.05Z" fill="#371A45"/>
<path d="M1563.14 1606.93C1610.4 1832.06 1683.51 2137.61 1651.3 2440.33C1630.65 2634.47 1587.38 2889.64 1587.38 2889.64C1587.38 2889.64 1716.05 2932.04 1706.84 3023.39C1706.61 3025.86 1712.28 3121.33 1457.48 3111.78C1349.46 3107.73 1276.01 3087.05 1249.72 3030.22C1226.17 2979.29 1229.54 2752.82 1229.54 2752.82V2432.43H1229.21V2752.82C1229.21 2752.82 1232.59 2979.29 1209.03 3030.22C1182.75 3087.05 1121.3 3107.73 1013.28 3111.78C758.474 3121.33 752.144 3025.86 751.914 3023.39C742.704 2932.04 871.371 2889.64 871.371 2889.64C871.371 2889.64 828.106 2634.47 807.45 2440.33C774.468 2130.34 850.701 1816.33 899.017 1590.87" fill="white"/>
<path d="M1571.32 1605.21C1605.12 1708.27 1624.36 1814.94 1643.37 1921.78C1661.53 2028.76 1674.51 2137.08 1677.46 2246.21C1678.14 2273.49 1677.94 2300.8 1677.33 2328.11C1676.48 2355.42 1675.09 2382.73 1672.83 2410C1670.47 2437.35 1667.43 2464.28 1664.22 2491.18C1661.03 2518.09 1657.62 2544.95 1654.03 2571.78C1646.95 2625.45 1638.74 2678.92 1630.46 2732.36C1622.13 2785.81 1613.36 2839.1 1603.86 2892.44L1592.61 2873.77L1592.62 2873.77C1600.22 2876.39 1606.53 2879.04 1613.27 2882.03C1619.87 2885 1626.36 2888.2 1632.75 2891.64C1645.51 2898.54 1657.88 2906.39 1669.53 2915.6C1681.15 2924.82 1692.1 2935.43 1701.34 2947.96C1710.53 2960.47 1717.89 2975.13 1721.46 2991.06C1723.24 2999 1724.08 3007.18 1724.01 3015.28C1723.93 3017.29 1723.94 3019.34 1723.76 3021.31L1723.53 3024.29L1723.48 3024.96L1723.53 3024.4C1723.54 3024.09 1723.54 3024.13 1723.53 3024.37L1723.46 3026.2C1723.19 3031.19 1722.32 3035.71 1721.05 3040.05C1715.92 3057.47 1704.85 3071.11 1692.7 3081.39C1680.4 3091.66 1666.85 3099.06 1653.1 3104.73C1639.34 3110.42 1625.32 3114.63 1611.29 3117.76C1583.19 3124.17 1555.02 3126.96 1527.01 3128.35C1498.97 3129.66 1471.16 3129.16 1443.34 3127.86C1415.51 3126.35 1387.49 3123.78 1359.45 3118.09C1331.56 3112.29 1302.97 3103.82 1277.21 3086.48C1264.4 3077.89 1252.68 3066.67 1243.7 3053.4C1241.44 3050.09 1239.43 3046.64 1237.49 3043.14L1234.82 3037.78C1233.96 3035.91 1233.16 3033.81 1232.36 3031.82C1229.55 3024.03 1227.69 3016.72 1226.26 3009.56C1220.57 2980.99 1218.52 2953.48 1216.61 2925.77C1213.19 2870.5 1212.45 2815.59 1212.75 2760.52L1212.83 2432.43L1229.55 2449.14H1229.21L1245.93 2432.43L1246 2760.03C1246.32 2815.02 1245.58 2869.84 1242.2 2925.03C1240.33 2952.69 1238.24 2980.18 1232.69 3008.67C1231.24 3015.81 1229.46 3023.09 1226.82 3030.78L1224.38 3036.8C1223.54 3038.66 1222.68 3040.32 1221.82 3042.08C1220.03 3045.54 1218.14 3048.96 1216.02 3052.28C1207.7 3065.59 1196.63 3077.43 1184.06 3086.64C1171.49 3095.84 1157.76 3102.76 1143.85 3107.88C1129.93 3113.06 1115.81 3116.71 1101.76 3119.44C1073.6 3124.91 1045.61 3127.09 1017.83 3128.31C990.075 3129.36 962.224 3129.5 934.24 3127.85C906.276 3126.25 878.156 3122.85 850.221 3116.09C822.467 3109.08 794.22 3099.2 769.484 3079.74C757.326 3069.92 746.066 3057.46 739.391 3041.05C737.741 3036.9 736.408 3032.65 735.587 3027.52L735.328 3025.48L735.196 3023.96L734.967 3020.99C734.825 3019.01 734.801 3016.97 734.738 3014.96C734.709 3006.87 735.539 2998.71 737.36 2990.79C740.949 2974.89 748.351 2960.28 757.536 2947.8C766.769 2935.3 777.717 2924.72 789.323 2915.52C800.964 2906.34 813.317 2898.5 826.056 2891.61C832.438 2888.18 838.917 2884.99 845.514 2882.02C852.233 2879.04 858.541 2876.39 866.124 2873.77L866.144 2873.77L854.894 2892.44C845.28 2838.43 836.408 2784.45 827.99 2730.32C819.606 2676.2 811.33 2622.04 804.162 2567.69C800.549 2540.51 797.131 2513.3 793.893 2486.04L789.259 2445.12C787.931 2431.38 786.393 2417.56 785.431 2403.76C781.012 2348.52 779.977 2293.14 781.3 2237.91C784.659 2127.42 798.112 2017.78 816.803 1909.49C826.129 1855.32 836.852 1801.47 848.19 1747.84C859.64 1694.23 872.873 1641.12 890.846 1589.12C892.36 1584.73 897.15 1582.39 901.549 1583.91C905.284 1585.19 907.526 1588.86 907.189 1592.63C902.194 1647.54 891.798 1701.2 881.012 1754.66C870.167 1808.1 859.967 1861.6 851.168 1915.28C833.526 2022.58 821.231 2130.68 818.761 2238.89C817.404 2292.96 818.356 2347.05 822.589 2400.84C823.512 2414.32 824.991 2427.68 826.271 2441.15L830.817 2481.72C833.991 2508.76 837.35 2535.8 840.91 2562.84C848.063 2616.89 855.344 2670.98 863.278 2724.98L875.397 2805.96L887.853 2886.85L890.045 2901.09L876.603 2905.51L876.598 2905.52C871.271 2907.35 864.948 2909.94 859.201 2912.52C853.342 2915.15 847.565 2918 841.916 2921.03C830.637 2927.13 819.855 2934 810.051 2941.74C790.471 2957.13 774.773 2976.56 769.948 2998.22C768.708 3003.61 768.156 3009.12 768.161 3014.69C768.22 3016.09 768.22 3017.46 768.327 3018.89L768.493 3021.02L768.576 3022.06L768.644 3022.56C768.898 3024.18 769.542 3026.5 770.441 3028.68C774.049 3037.69 781.383 3046.49 790.426 3053.69C808.771 3068.28 833.195 3077.45 858.165 3083.62C883.355 3089.72 909.679 3092.98 936.227 3094.48C962.78 3096.05 989.616 3095.93 1016.44 3094.91C1043.2 3093.75 1069.83 3091.61 1095.33 3086.64C1120.71 3081.66 1145.25 3073.71 1164.21 3059.75C1173.66 3052.79 1181.55 3044.32 1187.73 3034.49C1189.3 3032.05 1190.7 3029.48 1192.05 3026.88L1193.96 3022.95L1195.36 3019.47C1197.14 3014.24 1198.68 3008.24 1199.93 3002.01C1204.87 2976.85 1207.06 2949.73 1208.83 2922.92C1212.14 2869.06 1212.9 2814.57 1212.57 2760.32L1212.5 2432.43L1212.49 2415.72H1229.21H1229.55H1246.26L1246.26 2432.43L1246.17 2760.81C1245.87 2815.14 1246.62 2869.7 1249.97 2923.64C1251.77 2950.47 1253.95 2977.67 1258.99 3002.78C1260.22 3009.04 1261.84 3014.99 1263.64 3020.07C1264.15 3021.24 1264.52 3022.36 1265.08 3023.59L1266.99 3027.42C1268.38 3029.9 1269.79 3032.36 1271.4 3034.7C1277.77 3044.07 1286.09 3052.2 1295.99 3058.84C1315.76 3072.28 1340.64 3080.14 1366.1 3085.33C1391.69 3090.55 1418.32 3093.05 1445.08 3094.49C1498.64 3096.95 1553.01 3096.43 1603.81 3085.19C1616.46 3082.38 1628.74 3078.64 1640.25 3073.87C1651.78 3069.15 1662.42 3063.14 1671.14 3055.85C1679.79 3048.58 1686.34 3039.77 1688.94 3030.77C1689.6 3028.56 1689.99 3026.31 1690.08 3024.47L1690.24 3021.26L1690.41 3019.12C1690.55 3017.68 1690.52 3016.31 1690.59 3014.91C1690.62 3009.33 1690.06 3003.81 1688.85 2998.41C1684.08 2976.7 1668.38 2957.23 1648.79 2941.81C1638.98 2934.05 1628.18 2927.16 1616.89 2921.06C1611.23 2918.02 1605.44 2915.16 1599.57 2912.53C1593.82 2909.94 1587.48 2907.35 1582.15 2905.51L1568.56 2901.84L1570.9 2886.85C1579.21 2833.68 1587.35 2780.33 1595.18 2727.02C1603.02 2673.69 1610.2 2620.28 1617.32 2566.91C1620.85 2540.22 1624.21 2513.52 1627.35 2486.82C1630.49 2460.1 1633.48 2433.37 1635.72 2406.94C1637.88 2380.39 1639.21 2353.77 1640.01 2327.11C1640.59 2300.45 1640.69 2273.76 1640.08 2247.06C1638.06 2140.22 1626.2 2033.46 1609.1 1927.46C1600.57 1874.43 1590.64 1821.57 1580.15 1768.75C1575.07 1742.3 1570.01 1715.83 1565.72 1689.16C1561.35 1662.52 1557.4 1635.74 1554.96 1608.64L1554.96 1608.58C1554.54 1603.95 1557.95 1599.87 1562.58 1599.45C1566.55 1599.1 1570.13 1601.57 1571.32 1605.21Z" fill="#371A45"/>
<path d="M1584.15 2906.03C1576.1 2905.15 1566.92 2904.08 1558.18 2903.53C1549.35 2902.82 1540.48 2902.27 1531.62 2901.95C1513.89 2901.19 1496.16 2901.39 1478.5 2902.42C1460.85 2903.58 1443.45 2906.26 1426.24 2910.08C1409.06 2914.05 1392.56 2920.08 1376.28 2927.42L1375.8 2927.63C1371.59 2929.53 1366.63 2927.65 1364.74 2923.44C1363.09 2919.78 1364.29 2915.56 1367.39 2913.26C1382.98 2901.75 1400.2 2892.01 1418.48 2885.13C1423.01 2883.25 1427.68 2881.99 1432.3 2880.39L1439.28 2878.16L1446.34 2876.38C1451.06 2875.26 1455.78 2873.95 1460.53 2873L1474.87 2870.48C1494.03 2867.51 1513.39 2866.28 1532.66 2866.58C1542.31 2866.83 1551.94 2867.34 1561.53 2868.43C1566.34 2868.87 1571.12 2869.66 1575.92 2870.39C1580.79 2871.16 1585.35 2871.98 1590.62 2873.24C1599.6 2875.39 1605.14 2884.41 1602.99 2893.39C1601 2901.68 1593.16 2907.03 1584.9 2906.12L1584.15 2906.03Z" fill="#371A45"/>
<path d="M870.044 2873.24C880.215 2870.83 889.414 2869.47 899.116 2868.36C908.72 2867.29 918.34 2866.66 927.988 2866.43C947.275 2865.95 966.64 2867.18 985.844 2869.98C1005.04 2872.85 1024.04 2877.83 1042.32 2884.67C1060.63 2891.57 1077.83 2901.51 1093.27 2913.26C1096.94 2916.06 1097.65 2921.31 1094.85 2924.98C1092.58 2927.96 1088.69 2928.99 1085.35 2927.77L1084.38 2927.42C1075.89 2924.32 1068.24 2920.09 1059.58 2917.82C1055.35 2916.55 1051.36 2914.8 1047.03 2913.83C1042.73 2912.8 1038.5 2911.64 1034.27 2910.54C1017.07 2906.86 999.734 2904.04 982.092 2902.91C964.485 2901.71 946.77 2901.52 929.04 2902.09C920.183 2902.44 911.311 2902.87 902.482 2903.6C893.747 2904.15 884.567 2905.19 876.51 2906.03L875.636 2906.12C866.451 2907.08 858.234 2900.42 857.272 2891.24C856.391 2882.78 861.977 2875.14 870.044 2873.24Z" fill="#371A45"/>
<g opacity="0.25">
<path d="M1678.34 2207.21C1670.89 2211.8 1662.48 2214.88 1653.35 2216.02C1600.5 2222.66 1526.02 2227.34 1470.03 2212.07V2240.15C1470.03 2278.96 1439.45 2310.72 1402.14 2310.72H1031.2C993.842 2310.72 963.305 2278.96 963.305 2240.15V2217.75C911.864 2225.88 851.608 2221.66 806.801 2216.02C797.122 2214.79 788.215 2211.43 780.444 2206.34C780.899 2167.26 782.307 2128.41 784.579 2090.01C793.622 2085.06 803.847 2082.28 814.571 2082.28C815.571 2082.28 816.571 2082.33 817.57 2082.37C858.786 2084.42 915.135 2085.65 963.304 2081.33V2030.98C963.304 1992.17 993.841 1960.45 1031.19 1960.45H1402.14C1431.95 1960.45 1457.49 1980.72 1466.53 2008.67C1468.8 2015.66 1470.03 2023.16 1470.03 2030.98V2078.1C1522.74 2086.06 1593.41 2084.78 1642.58 2082.37C1643.58 2082.33 1644.58 2082.28 1645.58 2082.28C1655.8 2082.28 1665.48 2084.78 1674.16 2089.24C1676.43 2128.18 1677.93 2167.58 1678.34 2207.21Z" fill="#371A45"/>
</g>
<path d="M1012.13 2143.82C955.145 2167.78 866.95 2162.77 806.823 2155.22C770.76 2150.68 745.447 2116.12 750.759 2078.8C755.606 2044.75 784.471 2019.98 817.582 2021.59C873.822 2024.33 958.179 2025.61 1011.6 2013.31" fill="white"/>
<g opacity="0.25">
<path d="M1012.15 2143.81C955.163 2167.77 866.93 2162.79 806.816 2155.21C770.771 2150.7 745.449 2116.13 750.747 2078.78C751.873 2070.85 754.293 2063.4 757.839 2056.69C767.434 2075.14 785.206 2088.62 806.816 2091.35C866.847 2098.89 954.914 2103.91 1011.9 2080.04L1012.15 2143.81Z" fill="#371A45"/>
</g>
<path d="M898.799 2178.16C865.733 2178.16 832.871 2175.33 804.736 2171.8C783.3 2169.1 764.14 2157.99 750.781 2140.5C737.021 2122.49 730.981 2099.14 734.209 2076.45C740.308 2033.62 776.563 2002.86 818.394 2004.9C901.045 2008.92 968.326 2006.13 1007.85 1997.02C1016.04 1995.13 1036.41 1994.81 1048.56 2032.47C1062.17 2074.61 1059.33 2142.11 1018.61 2159.23H1018.61C984.907 2173.4 941.679 2178.16 898.799 2178.16ZM814.516 2038.23C790.927 2038.23 770.839 2056.31 767.304 2081.16C765.297 2095.24 768.867 2109.11 777.343 2120.21C785.219 2130.52 796.43 2137.07 808.906 2138.63C894.521 2149.39 964.394 2145.76 1005.66 2128.42C1013.32 2125.2 1019.03 2114 1021.33 2097.71C1025.28 2069.68 1017.57 2039.11 1011.36 2030.48C956.943 2042.07 875.869 2041.17 816.772 2038.29C816.015 2038.25 815.263 2038.23 814.516 2038.23Z" fill="#371A45"/>
<path d="M1448.03 2143.82C1505.01 2167.78 1593.21 2162.77 1653.34 2155.22C1689.4 2150.68 1714.71 2116.12 1709.4 2078.8C1704.55 2044.75 1675.69 2019.98 1642.58 2021.59C1586.34 2024.33 1501.98 2025.61 1448.56 2013.31" fill="white"/>
<g opacity="0.25">
<path d="M1653.35 2155.21C1593.2 2162.79 1505 2167.77 1448.02 2143.81L1448.27 2080.17C1505.25 2104.04 1593.28 2099.02 1653.35 2091.48C1674.96 2088.75 1692.77 2075.19 1702.37 2056.73C1705.83 2063.4 1708.29 2070.85 1709.42 2078.78C1714.72 2116.13 1689.4 2150.7 1653.35 2155.21Z" fill="#371A45"/>
</g>
<path d="M1561.36 2178.16C1518.48 2178.16 1475.26 2173.4 1441.55 2159.23C1400.83 2142.11 1397.99 2074.61 1411.59 2032.47C1423.74 1994.81 1444.13 1995.14 1452.3 1997.02C1491.83 2006.12 1559.12 2008.92 1641.77 2004.9C1683.61 2002.83 1719.85 2033.62 1725.95 2076.45C1729.17 2099.14 1723.14 2122.48 1709.38 2140.5C1696.03 2157.99 1676.86 2169.1 1655.42 2171.8C1627.28 2175.33 1594.42 2178.16 1561.36 2178.16ZM1454.5 2128.42C1495.77 2145.77 1565.63 2149.4 1651.25 2138.63C1663.73 2137.07 1674.94 2130.52 1682.82 2120.21C1691.29 2109.11 1694.86 2095.24 1692.85 2081.16C1689.2 2055.52 1668.04 2037.1 1643.39 2038.29C1584.27 2041.17 1503.21 2042.08 1448.79 2030.48C1442.58 2039.12 1434.87 2069.68 1438.83 2097.71C1441.13 2114 1446.84 2125.2 1454.5 2128.42Z" fill="#371A45"/>
<path d="M1470.04 1970.17V2179.34C1470.04 2218.16 1439.46 2249.92 1402.13 2249.92H1031.21C993.836 2249.92 963.299 2218.16 963.299 2179.34V1970.17C963.299 1931.39 993.836 1899.63 1031.21 1899.63H1402.13C1431.95 1899.63 1457.49 1919.91 1466.54 1947.85C1468.79 1954.87 1470.04 1962.37 1470.04 1970.17Z" fill="white"/>
<g opacity="0.25">
<path d="M1470.04 1970.17V2179.34C1470.04 2218.16 1439.46 2249.92 1402.13 2249.92H1031.21C993.836 2249.92 963.299 2218.16 963.299 2179.34V2108.94C1027.29 2145.72 1154.07 2200.96 1281.31 2155.38C1343.47 2133.1 1414.74 2056.74 1414.74 2056.74C1414.74 2056.74 1417.48 2136.86 1428.93 2135.6C1460.76 2132.08 1460.52 1969.96 1466.54 1947.85C1468.79 1954.87 1470.04 1962.37 1470.04 1970.17Z" fill="#371A45"/>
</g>
<path d="M1406.4 2266.61H1026.92C982.612 2266.61 946.567 2230.56 946.567 2186.26V1963.27C946.567 1918.97 982.612 1882.93 1026.92 1882.93H1406.4C1450.71 1882.93 1486.75 1918.97 1486.75 1963.27V2186.26C1486.75 2230.56 1450.71 2266.61 1406.4 2266.61ZM1026.92 1916.35C1001.04 1916.35 979.995 1937.4 979.995 1963.27V2186.26C979.995 2212.13 1001.04 2233.19 1026.92 2233.19H1406.4C1432.27 2233.19 1453.32 2212.13 1453.32 2186.26V1963.27C1453.32 1937.4 1432.27 1916.35 1406.4 1916.35H1026.92Z" fill="#371A45"/>
<path d="M1348.06 2135.6C1380.41 2135.6 1406.63 2108.36 1406.63 2074.77C1406.63 2041.17 1380.41 2013.94 1348.06 2013.94C1315.71 2013.94 1289.49 2041.17 1289.49 2074.77C1289.49 2108.36 1315.71 2135.6 1348.06 2135.6Z" fill="#22A7F0"/>
<path d="M1406.65 2074.78C1406.65 2078.93 1406.26 2082.95 1405.5 2086.86C1400.09 2059 1376.41 2038.04 1348.05 2038.04C1319.69 2038.04 1296.02 2059 1290.65 2086.86C1289.88 2082.95 1289.49 2078.93 1289.49 2074.78C1289.49 2041.19 1315.7 2013.93 1348.05 2013.93C1380.4 2013.93 1406.65 2041.19 1406.65 2074.78Z" fill="white"/>
<path d="M1406.63 2074.75C1406.63 2108.37 1380.39 2135.58 1348.06 2135.58C1315.73 2135.58 1289.49 2108.37 1289.49 2074.75C1289.49 2069.12 1290.24 2063.62 1291.62 2058.47C1298.5 2084.11 1321.2 2102.96 1348.06 2102.96C1374.93 2102.96 1397.62 2084.11 1404.5 2058.47C1405.88 2063.62 1406.63 2069.12 1406.63 2074.75Z" fill="#197BDD"/>
<path d="M1348.06 2148.13C1308.85 2148.13 1276.95 2115.22 1276.95 2074.77C1276.95 2034.31 1308.85 2001.4 1348.06 2001.4C1387.27 2001.4 1419.17 2034.31 1419.17 2074.77C1419.17 2115.22 1387.27 2148.13 1348.06 2148.13ZM1348.06 2026.47C1322.68 2026.47 1302.02 2048.14 1302.02 2074.77C1302.02 2101.4 1322.68 2123.06 1348.06 2123.06C1373.45 2123.06 1394.1 2101.4 1394.1 2074.77C1394.1 2048.14 1373.45 2026.47 1348.06 2026.47Z" fill="#371A45"/>
<path d="M1182.08 2266.61C1172.85 2266.61 1165.36 2259.13 1165.36 2249.9V2142.84C1165.36 2121.58 1155.66 2101.3 1139.4 2088.59L1129.98 2081.23C1105.69 2062.23 1091.18 2032.11 1091.18 2000.66V1899.64C1091.18 1890.41 1098.67 1882.93 1107.9 1882.93C1117.12 1882.93 1124.61 1890.41 1124.61 1899.64V2000.66C1124.61 2021.91 1134.31 2042.19 1150.57 2054.9L1159.99 2062.26C1184.28 2081.25 1198.79 2111.38 1198.79 2142.84V2249.9C1198.79 2259.13 1191.3 2266.61 1182.08 2266.61Z" fill="#371A45"/>
<path d="M1024.5 2618.79C957.837 2618.79 883.306 2606.78 813.247 2569.2C805.112 2564.83 802.056 2554.7 806.421 2546.57C810.781 2538.44 820.903 2535.37 829.048 2539.74C1005.23 2634.26 1221.25 2550.98 1223.41 2550.12C1232.01 2546.74 1241.7 2550.96 1245.08 2559.53C1248.47 2568.11 1244.27 2577.81 1235.69 2581.21C1229.76 2583.56 1138.67 2618.79 1024.5 2618.79Z" fill="#371A45"/>
<path d="M1434.3 2618.79C1320.16 2618.79 1229.15 2583.56 1223.22 2581.21C1214.64 2577.81 1210.44 2568.1 1213.84 2559.51C1217.23 2550.94 1226.94 2546.73 1235.52 2550.13C1237.68 2550.98 1453.56 2634.24 1629.7 2539.74C1637.84 2535.37 1647.97 2538.44 1652.33 2546.57C1656.7 2554.7 1653.64 2564.83 1645.5 2569.2C1575.46 2606.77 1500.93 2618.79 1434.3 2618.79Z" fill="#371A45"/>
<path d="M1066.14 2424.32C1066.14 2424.32 1132.34 2453.91 1229.38 2453.91C1326.41 2453.91 1392.95 2424.32 1392.95 2424.32C1392.95 2424.32 1348.98 2389.59 1229.38 2389.59C1109.78 2389.59 1066.14 2424.32 1066.14 2424.32Z" fill="white"/>
<path d="M1045.06 2414.12C1059.86 2418.36 1075.63 2422.2 1091.11 2425.28C1106.66 2428.49 1122.3 2431.1 1137.98 2433.26C1153.71 2435.12 1169.38 2437.19 1185.16 2437.98C1193.03 2438.56 1200.91 2438.87 1208.79 2439.25C1216.68 2439.57 1224.57 2439.48 1232.45 2439.61C1248.21 2439.45 1263.99 2439.16 1279.72 2437.83C1295.51 2437.08 1311.17 2434.93 1326.89 2433.08L1338.64 2431.4L1350.37 2429.47C1358.19 2428.19 1366.01 2426.79 1373.76 2425.12C1389.27 2422.1 1405.02 2418.27 1419.86 2414.12L1420.35 2413.99C1424.8 2412.74 1429.43 2415.34 1430.67 2419.8C1431.74 2423.61 1429.98 2427.55 1426.65 2429.39C1411.49 2437.77 1396.17 2443.7 1380.33 2449.26C1364.5 2454.53 1348.41 2459.09 1332.06 2462.49C1315.74 2466.03 1299.19 2468.55 1282.56 2470.34C1265.93 2472.07 1249.19 2472.74 1232.46 2472.99C1198.98 2472.73 1165.52 2469.45 1132.86 2462.41C1116.51 2459.02 1100.42 2454.45 1084.59 2449.19C1068.75 2443.66 1053.43 2437.72 1038.24 2429.38C1034.19 2427.16 1032.71 2422.06 1034.93 2418.01C1036.85 2414.51 1040.9 2412.93 1044.58 2413.99L1045.06 2414.12Z" fill="#371A45"/>
<path d="M819.954 1161.87C879.944 1101.88 879.944 1004.62 819.954 944.626C759.963 884.636 662.7 884.636 602.71 944.626C542.72 1004.62 542.72 1101.88 602.71 1161.87C662.7 1221.86 759.963 1221.86 819.954 1161.87Z" fill="#FFC891"/>
<g opacity="0.3">
<path d="M864.974 1053.25C864.974 1138.09 796.194 1206.87 711.353 1206.87C626.511 1206.87 557.732 1138.09 557.732 1053.25C557.732 1037.7 560.053 1022.71 564.363 1008.56C583.483 1071.63 642.058 1117.5 711.353 1117.5C780.648 1117.5 839.223 1071.63 858.343 1008.56C862.653 1022.71 864.974 1037.7 864.974 1053.25Z" fill="#371A45"/>
</g>
<path d="M711.352 1223.57C617.436 1223.57 541.025 1147.17 541.025 1053.25C541.025 959.33 617.436 882.921 711.352 882.921C805.268 882.921 881.679 959.33 881.679 1053.25C881.679 1147.17 805.268 1223.57 711.352 1223.57ZM711.352 916.343C635.864 916.343 574.453 977.759 574.453 1053.25C574.453 1128.73 635.864 1190.15 711.352 1190.15C786.84 1190.15 848.251 1128.73 848.251 1053.25C848.251 977.759 786.841 916.343 711.352 916.343Z" fill="#371A45"/>
<path d="M1856.33 1161.88C1916.32 1101.89 1916.32 1004.62 1856.33 944.632C1796.34 884.642 1699.08 884.642 1639.09 944.632C1579.1 1004.62 1579.1 1101.89 1639.09 1161.88C1699.08 1221.87 1796.34 1221.87 1856.33 1161.88Z" fill="#FFC891"/>
<g opacity="0.3">
<path d="M1901.36 1053.25C1901.36 1138.09 1832.58 1206.87 1747.74 1206.87C1662.89 1206.87 1594.11 1138.09 1594.11 1053.25C1594.11 1037.7 1596.44 1022.71 1600.75 1008.56C1619.87 1071.63 1678.44 1117.5 1747.74 1117.5C1817.03 1117.5 1875.61 1071.63 1894.73 1008.56C1899.04 1022.71 1901.36 1037.7 1901.36 1053.25Z" fill="#371A45"/>
</g>
<path d="M1747.73 1223.57C1653.82 1223.57 1577.41 1147.17 1577.41 1053.25C1577.41 959.33 1653.82 882.921 1747.73 882.921C1841.65 882.921 1918.07 959.33 1918.07 1053.25C1918.07 1147.17 1841.65 1223.57 1747.73 1223.57ZM1747.73 916.343C1672.25 916.343 1610.83 977.759 1610.83 1053.25C1610.83 1128.73 1672.25 1190.15 1747.73 1190.15C1823.22 1190.15 1884.64 1128.73 1884.64 1053.25C1884.64 977.759 1823.22 916.343 1747.73 916.343Z" fill="#371A45"/>
<g opacity="0.25">
<path d="M1634.93 1453.34C1551.04 1559.59 1400.88 1607.43 1229.53 1607.43C1058.14 1607.43 907.898 1559.5 824.043 1453.17C842.928 1445.15 863.652 1440.72 885.461 1440.72H1573.18C1595.12 1440.72 1616.01 1445.19 1634.93 1453.34Z" fill="#371A45"/>
</g>
<path d="M1705.95 1168.84C1705.95 1399.75 1492.65 1498.52 1229.54 1498.52C966.436 1498.52 753.134 1399.75 753.134 1168.84C753.134 1114.24 785.818 935.95 806.016 830.988C820.878 753.755 853.509 680.801 902.744 619.468C941.297 571.443 990.722 528.753 1044.61 528.753H1414.48C1468.37 528.753 1517.79 571.442 1556.34 619.468C1605.58 680.801 1638.21 753.755 1653.07 830.988C1673.27 935.95 1705.95 1114.24 1705.95 1168.84Z" fill="#FFC891"/>
<g opacity="0.3">
<path d="M1705.95 1168.85C1705.95 1399.76 1492.65 1498.53 1229.54 1498.53C966.436 1498.53 753.134 1399.76 753.134 1168.85C753.134 1161.34 753.76 1151.43 754.866 1139.71C775.643 1345.5 980.214 1459.08 1229.55 1459.08C1478.88 1459.08 1683.45 1345.5 1704.22 1139.71C1705.33 1151.43 1705.95 1161.34 1705.95 1168.85Z" fill="#371A45"/>
</g>
<path d="M1229.55 1515.23C1159.1 1515.23 1093.78 1508.29 1035.42 1494.61C842.612 1449.56 736.421 1333.86 736.421 1168.84C736.421 1152.39 739.077 1125.58 744.541 1086.9C755.444 1009.55 775.059 903.321 789.59 827.828C805.2 746.832 839.819 671.163 889.702 608.995C941.396 544.659 993.511 512.042 1044.61 512.042H1414.48C1465.58 512.042 1517.69 544.659 1569.37 608.985C1619.27 671.168 1653.89 746.837 1669.5 827.823C1684.03 903.28 1703.63 1009.47 1714.55 1086.9C1720.01 1125.57 1722.67 1152.37 1722.67 1168.84C1722.67 1333.86 1616.48 1449.55 1423.66 1494.61C1365.3 1508.29 1299.99 1515.23 1229.55 1515.23ZM1044.61 545.464C994.204 545.464 946.723 591.392 915.766 629.922C869.282 687.854 836.996 758.479 822.412 834.151C807.949 909.266 788.447 1014.9 777.637 1091.57C772.466 1128.18 769.849 1154.18 769.849 1168.84C769.849 1358.43 918.409 1432.94 1043.03 1462.06L1043.04 1462.06C1098.92 1475.16 1161.67 1481.81 1229.55 1481.81C1297.42 1481.81 1360.17 1475.16 1416.05 1462.06C1540.68 1432.94 1689.24 1358.43 1689.24 1168.84C1689.24 1154.16 1686.62 1128.16 1681.45 1091.57C1670.63 1014.82 1651.13 909.221 1636.68 834.146C1622.1 758.484 1589.81 687.859 1543.31 629.913C1512.36 591.393 1464.88 545.465 1414.48 545.465H1044.61V545.464Z" fill="#371A45"/>
<path d="M1354.17 1109.94C1351.66 1095.9 1351.54 1081.22 1354.04 1066.54C1355.26 1059.2 1357.17 1051.86 1359.96 1044.73C1362.61 1037.55 1366.14 1030.59 1370.45 1024.03C1387.27 997.559 1418.75 978.306 1452.1 978.359C1468.58 978.322 1485.27 982.238 1499.62 990.378C1514.03 998.371 1526.16 1009.89 1535.16 1023.02C1544.03 1036.29 1549.97 1050.94 1553.39 1065.7C1556.91 1080.46 1558.13 1095.4 1557.03 1109.94L1536.65 1095.42C1543.56 1093.59 1549.85 1091.25 1555.32 1087.62C1560.77 1083.98 1565.6 1078.93 1570.03 1072.27L1570.23 1071.97C1572.84 1068.05 1578.14 1066.98 1582.06 1069.59C1584.86 1071.46 1586.21 1074.71 1585.79 1077.84C1584.46 1087.59 1580.17 1097.95 1572.86 1106.23C1565.64 1114.61 1556.17 1120.54 1546.68 1124.46C1539.21 1127.54 1530.66 1123.98 1527.57 1116.52C1527.02 1115.17 1526.68 1113.78 1526.54 1112.4L1526.31 1109.94C1525.12 1097.6 1523.6 1085.57 1520.31 1074.29C1517.11 1062.99 1512.12 1052.58 1505.57 1043.79C1492.92 1025.86 1472.9 1015.13 1452.1 1014.74C1441.74 1014.74 1431.28 1016.97 1421.84 1021.84C1412.31 1026.59 1404.1 1033.98 1397.19 1042.79C1383.31 1060.58 1375.75 1084.33 1370.88 1109.94L1370.86 1110.03C1369.99 1114.64 1365.55 1117.66 1360.94 1116.79C1357.39 1116.11 1354.78 1113.3 1354.17 1109.94Z" fill="#371A45"/>
<path d="M1082.67 1109.94C1077.81 1084.33 1070.25 1060.58 1056.36 1042.79C1049.46 1033.98 1041.25 1026.59 1031.72 1021.84C1022.28 1016.97 1011.82 1014.74 1001.46 1014.74C980.658 1015.13 960.639 1025.86 947.982 1043.79C941.434 1052.59 936.444 1062.99 933.241 1074.29C929.965 1085.58 928.436 1097.6 927.25 1109.94L927.021 1112.34C926.245 1120.38 919.101 1126.27 911.054 1125.5C909.604 1125.36 908.158 1124.98 906.874 1124.46C897.392 1120.55 887.914 1114.61 880.702 1106.23C873.383 1097.95 869.091 1087.59 867.767 1077.84C867.132 1073.17 870.404 1068.88 875.077 1068.24C878.417 1067.79 881.566 1069.34 883.319 1071.96L883.524 1072.27C887.958 1078.93 892.792 1083.98 898.236 1087.62C903.71 1091.26 909.994 1093.59 916.903 1095.43L896.527 1109.94C895.428 1095.4 896.649 1080.46 900.16 1065.7C903.588 1050.94 909.52 1036.29 918.392 1023.03C927.396 1009.89 939.525 998.374 953.939 990.381C968.29 982.241 984.969 978.325 1001.46 978.362C1034.8 978.308 1066.29 997.561 1083.1 1024.03C1087.41 1030.59 1090.94 1037.55 1093.6 1044.73C1096.38 1051.86 1098.29 1059.2 1099.52 1066.54C1102.01 1081.23 1101.89 1095.91 1099.38 1109.95C1098.56 1114.56 1094.15 1117.63 1089.53 1116.81C1085.98 1116.17 1083.33 1113.4 1082.69 1110.05L1082.67 1109.94Z" fill="#371A45"/>
<path d="M897.305 889.809C898.878 887.649 900 886.114 901.379 884.383L905.491 879.586C908.319 876.517 911.271 873.634 914.366 870.916C920.546 865.485 927.215 860.674 934.256 856.397C948.373 847.94 964.071 841.734 980.719 838.205C997.314 834.622 1014.94 833.508 1032.32 836.174C1049.66 838.664 1066.69 845.124 1080.53 855.486C1088.15 861.191 1089.71 871.994 1084 879.615C1080.49 884.299 1075.06 886.691 1069.63 886.515L1067.93 886.447C1054.37 885.911 1042.2 885.936 1030.04 887.287C1017.94 888.56 1005.98 890.906 993.886 894.064C981.818 897.313 969.621 901.163 957.026 905.206L937.694 911.136C934.428 912.15 931.052 913.056 927.696 914.007L922.593 915.328C920.929 915.68 919.032 916.264 917.661 916.323L911.665 916.583C902.362 916.987 894.493 909.772 894.089 900.469C893.916 896.503 895.137 892.787 897.305 889.809Z" fill="#371A45"/>
<path d="M1535.97 916.322C1534.6 916.262 1532.7 915.678 1531.03 915.327L1525.93 914.006C1522.57 913.055 1519.2 912.148 1515.93 911.135L1496.6 905.205C1484.01 901.162 1471.81 897.311 1459.74 894.063C1447.65 890.906 1435.68 888.559 1423.58 887.286C1411.42 885.936 1399.26 885.911 1385.69 886.446L1384.1 886.509C1374.59 886.885 1366.58 879.478 1366.2 869.966C1365.97 864.12 1368.76 858.776 1373.09 855.487C1386.94 845.124 1403.97 838.665 1421.3 836.175C1438.68 833.509 1456.31 834.623 1472.91 838.206C1489.56 841.735 1505.25 847.942 1519.37 856.398C1526.41 860.675 1533.08 865.486 1539.26 870.917C1542.35 873.635 1545.31 876.518 1548.13 879.587L1552.25 884.384C1553.63 886.115 1554.75 887.65 1556.32 889.81C1561.8 897.336 1560.15 907.883 1552.62 913.366C1549.41 915.704 1545.66 916.744 1541.98 916.585L1535.97 916.322Z" fill="#371A45"/>
<path d="M1410.32 1232.89C1410.32 1287.86 1393.15 1330.85 1366.33 1361.87C1296.78 1442.18 1162.31 1442.18 1092.76 1361.87C1065.94 1330.85 1048.77 1287.86 1048.77 1232.89H1410.32Z" fill="#293856"/>
<path d="M1410.32 1232.89C1410.32 1287.86 1393.15 1330.85 1366.33 1361.87C1363.27 1365.41 1360.07 1368.79 1356.75 1372C1288.34 1438.79 1170.75 1438.79 1102.34 1372C1099.02 1368.79 1095.82 1365.41 1092.76 1361.87C1065.94 1330.85 1048.77 1287.86 1048.77 1232.89H1410.32Z" fill="#371A45"/>
<path d="M1397.64 1232.89C1390.06 1243.21 1379.34 1252.16 1366.33 1259.64C1296.78 1299.79 1162.31 1299.79 1092.76 1259.64C1079.75 1252.16 1069.03 1243.21 1061.45 1232.89H1397.64Z" fill="white"/>
<path d="M1356.75 1372C1288.34 1438.79 1170.75 1438.79 1102.34 1372C1170.71 1305.17 1288.38 1305.17 1356.75 1372Z" fill="#FF67A0"/>
<g opacity="0.3">
<path d="M1341.24 1385.33C1346.63 1381.22 1351.83 1376.8 1356.75 1372C1288.38 1305.17 1170.71 1305.17 1102.34 1372C1107.26 1376.8 1112.46 1381.22 1117.85 1385.33C1182.03 1336.36 1277.07 1336.36 1341.24 1385.33Z" fill="#371A45"/>
</g>
<path d="M1229.55 1435.45C1178.8 1435.45 1131.44 1417.38 1096.17 1384.57C1056.43 1347.59 1035.43 1295.14 1035.43 1232.89C1035.43 1225.52 1041.4 1219.54 1048.77 1219.54H1410.32C1417.69 1219.54 1423.66 1225.52 1423.66 1232.89C1423.66 1365.87 1326.01 1435.45 1229.55 1435.45ZM1062.47 1246.23C1068.63 1357.78 1151.93 1408.76 1229.55 1408.76C1307.15 1408.76 1390.46 1357.78 1396.61 1246.23H1062.47Z" fill="#371A45"/>
<path d="M1691.92 1303.26C1688.29 1311.07 1679.26 1315.17 1670.66 1312.91C1662.8 1310.78 1657.45 1303.89 1657.45 1296.11C1657.45 1295.61 1657.49 1295.07 1657.54 1294.53C1674.04 1117.33 1659.83 975.568 1638.4 871.658C1610.2 735.075 1569.5 663.963 1569.5 663.963H895.363C895.363 663.963 854.668 735.075 826.466 871.658C805.032 975.568 790.827 1117.33 807.33 1294.53C808.124 1302.92 802.609 1310.65 794.211 1312.91C792.623 1313.33 791.035 1313.54 789.448 1313.54C782.471 1313.54 775.953 1309.61 772.944 1303.26C707.598 1163.54 617.225 884.152 692.933 620.094C696.944 606.223 700.83 592.309 704.381 578.313C724.102 501.561 828.011 194.385 1228.94 194.385C1634.72 194.385 1741.73 508.998 1760.9 580.987C1763.74 591.683 1766.67 602.295 1769.8 612.866C1849.31 879.012 1757.9 1162.25 1691.92 1303.26Z" fill="#875245"/>
<g opacity="0.35">
<path d="M1800.23 863.689C1798.13 800.071 1788.88 735.282 1769.8 671.451C1766.67 660.878 1763.72 650.233 1760.88 639.589C1741.73 567.562 1634.71 252.985 1228.96 252.985C828.029 252.985 724.104 560.111 704.395 636.892C700.822 650.872 696.917 664.781 692.938 678.654C675.292 740.179 666.671 802.519 664.682 863.725C662.067 784.07 669.619 701.363 692.938 620.11C696.917 606.202 700.821 592.293 704.395 578.313C724.104 501.532 828.029 194.406 1228.96 194.406C1634.71 194.406 1741.73 508.983 1760.88 581.01C1763.72 591.654 1766.67 602.299 1769.8 612.873C1794.78 696.43 1802.88 781.692 1800.23 863.689Z" fill="white"/>
</g>
<g opacity="0.3">
<path d="M1638.4 871.659H826.466C854.668 735.076 895.363 663.964 895.363 663.964H1569.5C1569.5 663.964 1610.2 735.076 1638.4 871.659Z" fill="#371A45"/>
</g>
<path d="M1704 871.659H1638.4C1610.2 735.076 1569.51 663.964 1569.51 663.964H895.365C895.365 663.964 854.67 735.076 826.468 871.659H761.666C753.142 648.464 837.708 499.639 837.708 499.639H1628C1628 499.638 1712.56 648.463 1704 871.659Z" fill="#7A453B"/>
<g opacity="0.3">
<path d="M1706.79 3023.4C1706.55 3025.86 1700.23 3121.32 1445.42 3111.79C1337.41 3107.72 1275.98 3087.04 1249.67 3030.2C1240.45 3010.25 1235.35 2967.48 1232.57 2922.87L1230.2 2751.75L1226.13 2922.87C1223.36 2967.48 1218.25 3010.25 1209.04 3030.2C1182.73 3087.05 1121.3 3107.72 1013.28 3111.79C758.471 3121.32 752.155 3025.86 751.914 3023.4C750.587 3010.17 752.155 2997.94 755.776 2986.75C764.988 3001.92 792.505 3023.77 873.285 3034.87C1004.39 3052.85 1145.19 3036.84 1169.09 2949.66C1187.07 2884.05 1216.68 2531.45 1117.03 2488.89C962.956 2423.03 906.393 2370.09 949.237 2361.56C971.001 2357.22 1028.37 2375.28 1229.35 2375.28C1430.33 2375.28 1487.7 2357.22 1509.47 2361.56C1552.31 2370.09 1495.75 2423.03 1341.67 2488.89C1242.02 2531.45 1271.63 2884.05 1289.61 2949.66C1313.51 3036.84 1454.31 3052.85 1585.42 3034.87C1666.2 3023.77 1693.72 3001.92 1702.93 2986.75C1706.55 2997.94 1708.12 3010.17 1706.79 3023.4Z" fill="#371A45"/>
</g>
<path d="M789.331 1330.25C776.035 1330.25 763.608 1322.73 757.808 1310.33C717.056 1223.21 590.787 915.652 676.89 615.483C681.626 598.967 685.118 586.225 688.213 574.172C698.154 535.444 730.064 435.722 811.358 346.328C913.121 234.429 1053.62 177.693 1228.95 177.693C1405.98 177.693 1548.39 235.479 1652.25 349.444C1734.22 439.402 1766.83 538.34 1777.04 576.705C1779.36 585.389 1782.45 596.812 1785.82 608.097C1876.13 910.431 1748.37 1222.03 1707.07 1310.33C1699.94 1325.57 1682.84 1333.43 1666.37 1329.05C1650.07 1324.71 1639.36 1309.54 1640.9 1292.99C1678.15 892.798 1556.24 674.429 1555 672.271C1550.41 664.261 1553.19 654.048 1561.2 649.463C1569.21 644.888 1579.42 647.654 1584 655.664C1589.27 664.853 1712.4 885.459 1674.19 1296.09C1674.17 1296.24 1674.4 1296.59 1674.98 1296.75C1675.86 1296.98 1676.61 1296.55 1676.79 1296.16C1716.83 1210.57 1840.72 908.679 1753.79 617.663C1750.3 605.956 1747.13 594.223 1744.75 585.307C1728.11 522.819 1625.04 211.115 1228.95 211.115C845.728 211.115 742.96 495.365 720.587 582.485C717.413 594.848 713.844 607.868 709.02 624.699C626.12 913.698 748.576 1211.71 788.083 1296.16C788.269 1296.55 789.035 1296.98 789.895 1296.75C790.481 1296.59 790.706 1296.24 790.691 1296.09C752.473 885.458 875.608 664.852 880.872 655.663C885.457 647.65 895.667 644.879 903.675 649.462C911.683 654.045 914.461 664.245 909.891 672.253C908.656 674.421 786.82 893.823 823.973 1292.99C825.516 1309.54 814.808 1324.7 798.504 1329.05C795.444 1329.86 792.363 1330.25 789.331 1330.25Z" fill="#371A45"/>
<path d="M1627.99 454.862C1627.99 454.862 1712.56 595.883 1704.01 807.415H1232.85H761.68C753.133 595.883 837.706 454.862 837.706 454.862" fill="#875245"/>
<path d="M1704 807.41H761.664C760.995 789.737 760.912 772.523 761.413 755.894C761.496 758.401 761.58 760.95 761.664 763.498H1027.18C1032.45 643.168 1068.88 461.963 1068.88 461.963C1054.89 602.599 1056.14 708.054 1058.6 763.498H1376.48C1378.94 708.054 1380.2 602.599 1366.2 461.963C1366.2 461.963 1402.63 643.168 1407.9 763.498H1515.4C1517.86 708.054 1519.12 602.599 1505.12 461.963C1505.12 461.963 1541.55 643.168 1546.82 763.498H1704C1704.13 760.949 1704.21 758.401 1704.25 755.894C1704.79 772.523 1704.71 789.737 1704 807.41Z" fill="#7A453B"/>
<path d="M1635.16 450.564C1654.58 476.035 1668.19 503.98 1679.69 532.993C1685.44 547.475 1690.25 562.292 1694.69 577.214L1701.03 599.694L1706.42 622.423C1712.88 652.867 1718.08 683.683 1720.13 714.784C1722.88 745.829 1722.38 777.057 1720.71 808.082V808.087C1720.58 816.993 1713.33 824.122 1704.45 824.125H1704.01H761.679H761.259C752.353 824.125 745.116 816.962 744.98 808.087V808.082C743.31 777.054 742.861 745.829 745.6 714.786C747.68 683.687 752.934 652.887 759.399 622.447L764.848 599.737L771.191 577.264C773.188 569.747 775.844 562.406 778.295 555.025C780.707 547.63 783.481 540.347 786.327 533.104C797.899 504.125 811.532 476.246 830.541 450.562C833.295 446.839 838.544 446.055 842.27 448.809C845.38 451.114 846.44 455.161 845.092 458.604L844.872 459.158C834.14 486.536 824.501 515.098 815.971 543.45C807.45 571.9 799.614 600.559 794.238 629.751C792.544 636.97 791.635 644.351 790.312 651.641C789.096 658.955 787.734 666.241 786.948 673.619L784.043 695.662C783.149 703.018 782.778 710.43 782.007 717.801C780.298 732.542 780.117 747.379 779.136 762.188C778.54 769.595 778.814 777.02 778.701 784.441C778.721 791.863 778.506 799.292 778.379 806.731V806.736L761.68 790.701H1704.01L1687.31 806.736V806.731C1687.2 799.292 1686.96 791.863 1686.98 784.441C1686.87 777.019 1687.15 769.595 1686.55 762.188C1685.58 747.378 1685.33 732.547 1683.65 717.803C1682.88 710.432 1682.45 703.028 1681.58 695.669L1678.67 673.628C1677.82 666.262 1676.48 658.975 1675.27 651.663C1673.94 644.373 1673.03 636.995 1671.34 629.776C1665.9 600.601 1658.02 571.963 1649.4 543.565C1640.8 515.245 1631.14 486.751 1620.82 459.158L1620.61 458.594C1618.99 454.251 1621.19 449.412 1625.54 447.788C1629.09 446.463 1632.97 447.701 1635.16 450.564Z" fill="#371A45"/>
</svg>
