<svg width="146" height="146" viewBox="0 0 146 146" fill="none" xmlns="http://www.w3.org/2000/svg">
<path d="M31.2222 11.7781L24.8402 18.1511L34.3362 27.6426L40.7092 21.2696L31.2222 11.7781ZM114.511 11.7781L105.015 21.2696L111.393 27.6426L120.884 18.1556L114.511 11.7781ZM72.8644 14.6065C71.3686 14.6246 69.8546 14.7107 68.3316 14.8966C68.2863 14.8966 68.241 14.8875 68.1957 14.8966C49.8109 17.0043 35.1793 31.858 32.6365 50.1612C30.6058 64.8925 36.6796 78.2505 46.8012 86.8536C50.9414 90.387 53.7419 95.2357 54.7335 100.588V127.784H65.0681C66.6455 130.49 69.5237 132.317 72.8644 132.317C76.205 132.317 79.0833 130.49 80.6606 127.784H90.9953V109.653H91.4213V104.268C91.4213 97.6233 94.8753 90.9239 100.487 85.7158C107.993 78.2006 113.659 67.526 113.659 55.265C113.659 32.8734 95.2288 14.398 72.8644 14.6065ZM72.8644 23.6719C90.3833 23.4272 104.593 37.7687 104.593 55.265C104.593 64.7565 100.197 73.1149 94.1092 79.1978L94.2543 79.3428C88.2048 84.9213 84.293 92.437 83.1944 100.592H63.3683C62.3711 92.8232 59.0396 85.3034 52.7436 79.9094C44.7343 73.1103 39.9613 62.8664 41.5569 51.2989C43.5377 37.0208 55.1233 25.5394 69.3198 23.9666C70.4919 23.8032 71.6723 23.7063 72.8553 23.6765L72.8644 23.6719ZM9.40625 55.265V64.3305H23.0044V55.265H9.40625ZM122.724 55.265V64.3305H136.322V55.265H122.724ZM34.3362 91.9529L24.8447 101.44L31.2222 107.817L40.7047 98.3259L34.3362 91.9529ZM111.393 91.9529L105.02 98.3259L114.506 107.817L120.884 101.44L111.393 91.9529ZM63.7989 109.658H81.9298V118.723H63.7989V109.658Z" fill="#F8F8F8"/>
</svg>
