<svg width="81" height="81" viewBox="0 0 81 81" fill="none" xmlns="http://www.w3.org/2000/svg">
<path d="M75.2319 48.2106H65.2066V38.1853H60.1939V60.7423H20.0927V20.641H42.6496V15.6283H32.6243V5.60303H27.6116V15.6283H20.0927C18.7636 15.6297 17.4894 16.1582 16.5496 17.098C15.6099 18.0378 15.0813 19.312 15.08 20.641V28.16H5.05469V33.1726H15.08V48.2106H5.05469V53.2233H15.08V60.7423C15.0813 62.0713 15.6099 63.3455 16.5496 64.2853C17.4894 65.2251 18.7636 65.7536 20.0927 65.7549H27.6116V75.7802H32.6243V65.7549H47.6623V75.7802H52.6749V65.7549H60.1939C61.5228 65.7529 62.7966 65.2242 63.7362 64.2845C64.6758 63.3449 65.2046 62.0711 65.2066 60.7423V53.2233H75.2319V48.2106Z" fill="#F8F8F8"/>
<path d="M52.6766 53.2233H27.6133V28.16H52.6766V53.2233ZM32.6259 48.2106H47.6639V33.1726H32.6259V48.2106ZM77.7399 33.1726H72.7272C72.7192 26.5279 70.0761 20.1576 65.3775 15.459C60.679 10.7604 54.3087 8.1173 47.6639 8.10934V3.09668C55.6379 3.1053 63.2828 6.27678 68.9213 11.9152C74.5598 17.5537 77.7312 25.1986 77.7399 33.1726Z" fill="#F8F8F8"/>
<path d="M65.2084 33.1727H60.1957C60.1917 29.8503 58.8702 26.6652 56.5209 24.3159C54.1716 21.9666 50.9864 20.6451 47.6641 20.6411V15.6284C52.3153 15.6344 56.7743 17.4847 60.0632 20.7736C63.3521 24.0625 65.2024 28.5215 65.2084 33.1727Z" fill="#F8F8F8"/>
</svg>
