<svg width="112" height="112" viewBox="0 0 112 112" fill="none" xmlns="http://www.w3.org/2000/svg">
<g clip-path="url(#clip0_640_141)">
<g clip-path="url(#clip1_640_141)">
<path d="M55.8615 37.7633L41.9967 45.8511V62.0267L55.8615 70.1145L69.7263 62.0267V45.8511L55.8615 37.7633ZM62.8725 47.1914L55.8015 51.3139L48.7905 47.2237L55.8615 43.1013L62.8725 47.1914ZM46.5721 51.2676L53.4306 55.2699V63.3577L46.5721 59.3601V51.2676ZM58.006 63.5287V55.3624L65.151 51.1937V59.3601L58.006 63.5287ZM14.2671 0.790527L0.402344 8.87833V25.0539L14.2671 33.1417L28.1319 25.0539V8.87833L14.2671 0.790527ZM21.2781 10.2186L14.2071 14.3411L7.1961 10.2509L14.2671 6.12847L21.2781 10.2186ZM4.97773 14.2902L11.8362 18.2925V26.3803L4.97773 22.3919V14.2902ZM16.4116 26.5513V18.3896L23.5566 14.2209V22.3873L16.4116 26.5513ZM14.2671 79.3577L0.402344 87.4455V103.621L14.2671 111.709L28.1319 103.621V87.4455L14.2671 79.3577ZM21.2781 88.7858L14.2071 92.9082L7.1961 88.8181L14.2671 84.6957L21.2781 88.7858ZM4.97773 92.862L11.8362 96.8643V104.952L4.97773 100.959V92.862ZM16.4116 105.123V96.9568L23.5566 92.7881V100.954L16.4116 105.123ZM97.4559 0.790527L83.5911 8.87833V25.0539L97.4559 33.1417L111.321 25.0539V8.87833L97.4559 0.790527ZM104.467 10.2186L97.3959 14.3411L90.3849 10.2509L97.4559 6.12847L104.467 10.2186ZM88.1665 14.2948L95.025 18.2971V26.3849L88.1665 22.3873V14.2948ZM99.6004 26.5559V18.3896L106.745 14.2209V22.3873L99.6004 26.5559ZM97.4559 79.3577L83.5911 87.4455V103.621L97.4559 111.709L111.321 103.621V87.4455L97.4559 79.3577ZM104.467 88.7858L97.3959 92.9082L90.3849 88.8181L97.4559 84.6957L104.467 88.7858ZM88.1665 92.862L95.025 96.8643V104.952L88.1665 100.954V92.862ZM99.6004 105.123V96.9568L106.745 92.7881V100.954L99.6004 105.123ZM41.9967 14.6553H69.7263V19.2769H41.9967V14.6553ZM41.9967 93.2225H69.7263V97.8441H41.9967V93.2225ZM16.5779 42.3849V70.1145H11.9563V42.3849H16.5779ZM34.1077 41.59L24.3053 31.7876L27.5727 28.5201L37.3751 38.3179L34.1077 41.59ZM74.3479 39.1175L84.1504 29.315L87.4178 32.5825L77.6154 42.3849L74.3479 39.1175ZM37.9667 69.5553L28.1643 79.3577L24.8968 76.0902L34.6992 66.2878L37.9667 69.5553ZM78.4103 66.0891L88.2127 75.8915L84.9453 79.159L75.1429 69.3566L78.4103 66.0891ZM99.7667 42.3849V70.1145H95.1451V42.3849H99.7667Z" fill="white"/>
</g>
</g>
<defs>
<clipPath id="clip0_640_141">
<rect width="110.918" height="110.918" fill="white" transform="translate(0.402344 0.789551)"/>
</clipPath>
<clipPath id="clip1_640_141">
<rect width="110.918" height="110.918" fill="white" transform="translate(0.402344 0.790039)"/>
</clipPath>
</defs>
</svg>
