<svg width="112" height="112" viewBox="0 0 112 112" fill="none" xmlns="http://www.w3.org/2000/svg">
<path d="M67.118 61.5082V61.5056V46.0186V45.1654H66.2648H45.4676H44.6143V46.0186L44.6143 61.5056L44.6143 61.5077C44.6196 63.6371 45.2268 65.7217 46.3659 67.521C47.505 69.3202 49.1296 70.7607 51.0522 71.6762L51.0541 71.6772L55.5013 73.7811L55.8668 73.9541L56.232 73.7807L60.6792 71.6698L60.6801 71.6693C62.6016 70.7543 64.2254 69.315 65.3644 67.5172C66.5035 65.7194 67.1113 63.6364 67.118 61.5082ZM41.9549 70.3131C40.2865 67.6773 39.3968 64.6238 39.3884 61.5044V39.9394H72.3439L72.3439 61.4998C72.3439 61.5003 72.3439 61.5008 72.3439 61.5013C72.3354 64.6205 71.4458 67.674 69.7775 70.3096C68.109 72.9455 65.7298 75.0564 62.9139 76.3988C62.9136 76.3989 62.9134 76.399 62.9132 76.3991L55.866 79.7366L48.8191 76.4026C48.8187 76.4024 48.8183 76.4022 48.8179 76.4021C46.0023 75.0596 43.6232 72.9488 41.9549 70.3131Z" fill="#F8F8F8" stroke="black" stroke-width="1.70644"/>
<path d="M85.1697 30.8502L84.5584 31.4535L85.1657 32.0608L105.224 52.1196C105.225 52.1196 105.225 52.1197 105.225 52.1197C106.364 53.2597 107.004 54.8057 107.004 56.4176C107.004 58.0296 106.364 59.5756 105.224 60.7156L85.1691 80.7744L84.562 81.3816L85.173 81.9849L95.225 91.9086L95.5648 92.2441L96.0285 92.1299C97.326 91.8102 98.6927 91.9275 99.9168 92.4635C101.141 92.9995 102.154 93.9243 102.799 95.0946C103.444 96.2649 103.685 97.6153 103.485 98.9365C103.284 100.258 102.654 101.476 101.691 102.402C100.727 103.329 99.4857 103.911 98.1577 104.06C96.8298 104.209 95.4898 103.916 94.3454 103.226C93.2011 102.536 92.3163 101.487 91.8283 100.243C91.3403 98.9995 91.2762 97.6293 91.6461 96.3452L91.7864 95.8581L91.4257 95.5019L81.4707 85.6718L80.8675 85.0761L80.268 85.6755L60.1641 105.776C59.024 106.916 57.4781 107.556 55.8661 107.556C54.2541 107.556 52.7081 106.916 51.5681 105.776L31.5092 85.7206L30.9019 85.1134L30.2987 85.7246L20.3784 95.7766L20.043 96.1164L20.1573 96.58C20.4769 97.8775 20.3597 99.2442 19.8236 100.468C19.2876 101.692 18.3628 102.705 17.1925 103.351L17.6044 104.098L17.1925 103.351C16.0222 103.996 14.6718 104.237 13.3506 104.036C12.0295 103.836 10.8113 103.205 9.88493 102.242C8.95857 101.279 8.37578 100.037 8.22688 98.7092C8.07797 97.3813 8.37128 96.0413 9.06133 94.8969C9.75139 93.7526 10.7996 92.8678 12.0436 92.3798C13.2876 91.8918 14.6579 91.8277 15.9419 92.1976L16.4292 92.3379L16.7854 91.977L26.6121 82.0186L27.2074 81.4152L26.608 80.8159L6.50421 60.7156C5.36454 59.5756 4.72431 58.0296 4.72431 56.4176C4.72431 54.8056 5.36454 53.2596 6.50421 52.1196L26.608 32.0193L27.2074 31.4199L26.6121 30.8166L16.7854 20.8582L16.4288 20.4968L15.941 20.6379C14.6538 21.0102 13.2797 20.9474 12.0319 20.4591C10.7841 19.9708 9.73234 19.0844 9.03974 17.9373C8.34713 16.7903 8.05244 15.4467 8.20136 14.115C8.35029 12.7834 8.93451 11.5381 9.8634 10.5724C10.7923 9.60668 12.0139 8.9745 13.3388 8.77393C14.6636 8.57336 16.0176 8.81561 17.1907 9.46311C18.3639 10.1106 19.2905 11.1271 19.8269 12.355C20.3633 13.5829 20.4795 14.9535 20.1575 16.2542L20.0426 16.7181L20.3782 17.0584L30.2985 27.1173L30.9019 27.7291L31.5094 27.1214L51.5681 7.05573C52.7081 5.91606 54.2541 5.27583 55.8661 5.27583C57.4781 5.27583 59.024 5.91606 60.1641 7.05573L80.2644 27.1595L80.8637 27.759L81.4671 27.1636L91.4289 17.3335L91.79 16.9771L91.6494 16.4897C91.2781 15.2021 91.3422 13.828 91.8316 12.5805C92.3211 11.333 93.2085 10.282 94.3564 9.5904C95.5042 8.89882 96.8481 8.60541 98.1797 8.75568C99.5114 8.90595 100.756 9.4915 101.721 10.4215C102.686 11.3515 103.317 12.5739 103.516 13.8991C103.715 15.2242 103.471 16.5781 102.822 17.7506C102.173 18.923 101.156 19.8485 99.9269 20.3835C98.6983 20.9185 97.3274 21.033 96.0271 20.7093L95.5624 20.5936L95.2216 20.9299L85.1697 30.8502ZM55.2628 102.082L55.8661 102.685L56.4694 102.082L101.53 57.0209L102.133 56.4176L101.53 55.8143L56.4694 10.7537L55.8661 10.1504L55.2628 10.7537L10.2022 55.8143L9.59885 56.4176L10.2022 57.0209L55.2628 102.082Z" fill="#F8F8F8" stroke="black" stroke-width="1.70644"/>
</svg>
