<svg width="98" height="99" viewBox="0 0 98 99" fill="none" xmlns="http://www.w3.org/2000/svg">
<path d="M32.4632 41.5021L48.6743 49.6077M32.4632 41.5021V57.7132L48.6743 65.8188M32.4632 41.5021L48.6743 33.3965L64.8855 41.5021M48.6743 49.6077L64.8855 41.5021M48.6743 49.6077V65.8188M48.6743 65.8188L64.8855 57.7132V41.5021M38.1371 86.0827C29.0588 86.0827 24.5197 86.0827 21.0505 84.3157C18.0003 82.7615 15.5204 80.2816 13.9662 77.2315C12.1992 73.7623 12.1992 69.2231 12.1992 60.1449M85.1494 60.1449C85.1494 69.2231 85.1494 73.7623 83.3824 77.2315C81.8282 80.2816 79.3483 82.7615 76.2981 84.3157C72.8289 86.0827 68.2898 86.0827 59.2116 86.0827M59.2116 13.1326C68.2898 13.1326 72.8289 13.1326 76.2981 14.8996C79.3483 16.4538 81.8282 18.9337 83.3824 21.9839C85.1494 25.453 85.1494 29.9922 85.1494 39.0704M38.1371 13.1326C29.0588 13.1326 24.5197 13.1326 21.0505 14.8996C18.0003 16.4538 15.5204 18.9337 13.9662 21.9839C12.1992 25.453 12.1992 29.9922 12.1992 39.0704" stroke="#F8F8F8" stroke-width="1.70644" stroke-linecap="round" stroke-linejoin="round"/>
</svg>
