<svg width="168" height="99" viewBox="0 0 168 99" fill="none" xmlns="http://www.w3.org/2000/svg">
<path d="M83.9788 34.3786L75.8803 30.0648L61.8225 22.5776C61.8097 22.5647 61.784 22.5647 61.7712 22.5647C61.2579 22.319 60.7318 22.8362 60.9243 23.3534L68.0873 41.7634L68.0885 41.7673C68.0962 41.7854 68.1027 41.8036 68.1104 41.8216C68.4042 42.5082 69.0458 42.9325 69.7439 43.0993C69.8028 43.1121 69.8452 43.1239 69.916 43.1382C69.9866 43.1539 70.0853 43.1754 70.17 43.182C70.184 43.1832 70.1969 43.1832 70.2109 43.1846H70.2212C70.2315 43.1858 70.2417 43.1858 70.252 43.1871H70.2662C70.2751 43.1885 70.2854 43.1885 70.2944 43.1885H70.311C70.3213 43.1897 70.3316 43.1897 70.3418 43.1897C79.4135 44.1864 88.5659 44.1864 97.6374 43.1897C97.7466 43.1897 97.853 43.1846 97.9557 43.1742C97.9891 43.1703 98.0212 43.1665 98.0532 43.1626C98.057 43.1613 98.0623 43.1613 98.0661 43.1599C98.0878 43.1574 98.1097 43.1536 98.1316 43.1497C98.1636 43.1458 98.1956 43.1393 98.2278 43.1328C98.2919 43.1187 98.3211 43.1083 98.4081 43.0782C98.4951 43.0481 98.6397 42.9953 98.7303 42.9512C98.8207 42.9073 98.8835 42.8651 98.9592 42.8173C99.0529 42.7579 99.1419 42.6969 99.2323 42.6288C99.2712 42.5987 99.298 42.5794 99.3262 42.5523L99.3108 42.5431L83.9788 34.3786Z" fill="#808495"/>
<path d="M106.158 22.5779H106.146L92.0826 30.065L99.9001 41.7974L107.045 23.3538V23.3279C107.225 22.7848 106.673 22.2934 106.158 22.5779Z" fill="#262730"/>
<path d="M84.7282 19.018C84.369 18.489 83.5861 18.489 83.2396 19.018L75.8803 30.065L83.9788 34.3788L99.3262 42.5523C99.4226 42.4572 99.4999 42.3646 99.5817 42.2667C99.6971 42.1231 99.8049 41.9693 99.8998 41.7973L92.0825 30.065L84.7282 19.018Z" fill="#555867"/>
<path d="M32.8512 61.6489H35.6831C35.5535 57.9745 32.1902 55.2277 27.5173 55.2277C22.8916 55.2277 19.2572 57.9389 19.2572 62.0294C19.2572 65.3114 21.6172 67.2616 25.3932 68.3556L28.367 69.2117C30.9158 69.9251 33.1815 70.8289 33.1815 73.2547C33.1815 75.9184 30.6327 77.6782 27.2813 77.6782C24.402 77.6782 21.8532 76.394 21.6172 73.6352H18.5963C18.8794 77.6307 22.0891 80.3419 27.2813 80.3419C32.8512 80.3419 36.0136 77.2501 36.0136 73.3023C36.0136 68.7361 31.7183 67.2616 29.2166 66.5956L26.7622 65.9298C24.9685 65.454 22.0891 64.5028 22.0891 61.8867C22.0891 59.5561 24.2132 57.8437 27.4229 57.8437C30.3495 57.8437 32.568 59.247 32.8512 61.6489ZM47.6656 61.6489H43.7952V57.273H41.0102V61.6489H38.2726V64.0272H41.0102V75.4426C41.0102 78.6295 43.5591 80.1516 45.9191 80.1516C46.9576 80.1516 47.6184 79.9614 47.9961 79.8186L47.4296 77.2977C47.1937 77.3452 46.8159 77.4405 46.2025 77.4405C44.9752 77.4405 43.7952 77.0598 43.7952 74.6816V64.0272H47.6656V61.6489ZM51.1901 79.9137H53.9751V68.3556C53.9751 65.8821 55.9103 64.0747 58.5536 64.0747C59.2971 64.0747 60.0641 64.2174 60.2529 64.2649V61.4111C59.9343 61.3872 59.2027 61.3635 58.7895 61.3635C56.6183 61.3635 54.7303 62.6002 54.0695 64.4077H53.8807V61.6489H51.1901V79.9137ZM69.9371 80.2942C73.6188 80.2942 76.3093 78.4393 77.159 75.6805L74.4685 74.9195C73.7605 76.8221 72.1202 77.7733 69.9371 77.7733C66.6684 77.7733 64.4145 75.6448 64.2847 71.7326H77.4421V70.5435C77.4421 63.7417 73.43 61.4111 69.6539 61.4111C64.745 61.4111 61.4881 65.3114 61.4881 70.924C61.4881 76.5367 64.6978 80.2942 69.9371 80.2942ZM64.2847 69.3068C64.4736 66.4648 66.4678 63.9321 69.6539 63.9321C72.6748 63.9321 74.61 66.2151 74.61 69.3068H64.2847ZM86.3477 80.3419C89.5101 80.3419 91.1622 78.6295 91.7286 77.4405H91.8703V79.9137H94.6551V67.8798C94.6551 62.077 90.2654 61.4111 87.9525 61.4111C85.2148 61.4111 82.0995 62.3623 80.6834 65.6919L83.3268 66.6432C83.9404 65.3114 85.3919 63.8844 88.0469 63.8844C90.6076 63.8844 91.8703 65.252 91.8703 67.5945V67.6896C91.8703 69.0452 90.5013 68.9263 87.1972 69.3544C83.8341 69.7943 80.1643 70.5435 80.1643 74.7291C80.1643 78.2965 82.9019 80.3419 86.3477 80.3419ZM86.7725 77.8209C84.554 77.8209 82.9492 76.8221 82.9492 74.8719C82.9492 72.7314 84.8843 72.0656 87.0557 71.7802C88.2357 71.6375 91.3981 71.3045 91.8703 70.7337V73.3023C91.8703 75.5854 90.0766 77.8209 86.7725 77.8209ZM99.0735 79.9137H101.858V68.4982C101.858 65.8227 103.794 63.9321 105.965 63.9321C108.077 63.9321 109.552 65.3232 109.552 67.4042V79.9137H112.384V68.0226C112.384 65.6681 113.847 63.9321 116.396 63.9321C118.379 63.9321 120.078 64.9903 120.078 67.6896V79.9137H122.863V67.6896C122.863 63.3969 120.574 61.4111 117.34 61.4111C114.744 61.4111 112.845 62.612 111.912 64.5028H111.724C110.827 62.5526 109.245 61.4111 106.862 61.4111C104.502 61.4111 102.755 62.5526 102 64.5028H101.764V61.6489H99.0735V79.9137ZM130.075 55.5607H127.29V79.9137H130.075V55.5607ZM134.511 79.9137H137.296V61.6489H134.511V79.9137ZM135.927 58.6047C137.013 58.6047 137.91 57.7486 137.91 56.7021C137.91 55.6558 137.013 54.7996 135.927 54.7996C134.842 54.7996 133.945 55.6558 133.945 56.7021C133.945 57.7486 134.842 58.6047 135.927 58.6047ZM149.615 61.6489H145.744V57.273H142.96V61.6489H140.222V64.0272H142.96V75.4426C142.96 78.6295 145.508 80.1516 147.868 80.1516C148.907 80.1516 149.568 79.9614 149.945 79.8186L149.379 77.2977C149.143 77.3452 148.765 77.4405 148.152 77.4405C146.924 77.4405 145.744 77.0598 145.744 74.6816V64.0272H149.615V61.6489Z" fill="white"/>
</svg>
