<svg height="32" viewBox="0 0 98 32" width="98" xmlns="http://www.w3.org/2000/svg"><path d="m84.831 7.352 3.216 9.055.766 2.762.918-2.762 3.216-9.055h5.053l-8.437 23.574-5.451 1.074 2.25-6.385-6.584-18.263zm-64.591-7.352c5.206.03 10.35 4.357 10.35 10.662 0 0 .032 1.602.036 3.54v.81c-.001.365-.004.735-.007 1.103l-.007.55c-.023 1.548-.077 2.989-.19 3.739-.72 4.817-4.318 8.146-9.278 8.99-4.47.874-7.12 1.38-7.977 1.549-.367.077-1.99.291-2.694.291-5.45 0-10.395-4.08-10.472-10.662v-1.081l.001-.186v-.406c.002-.709.004-1.578.008-2.472l.003-.539c.008-1.709.023-3.414.05-4.198.183-4.802 3.505-8.683 9.828-9.926l8.052-1.564c.735-.139 1.546-.2 2.296-.2zm25.392 2.44v4.912h4.594v4.45h-4.594v7.674c0 1.504 1.133 2.149 1.838 2.149.603 0 1.151-.068 1.71-.222l.28-.085 1.072 3.53c-.46.307-1.837 1.074-4.44 1.074-2.604 0-5.299-1.995-5.36-5.371-.043-2.124-.046-4.832-.007-8.124l.007-.625h-3.215v-4.45h3.215v-3.96zm-21.749 3.16-12.248 2.376v4.787l-4.899.95v11.937l12.248-2.378v-4.786l4.899-.951v-11.936zm47.78 1.291c4.265-.03 7.499 3.335 7.65 7.577l.006.25v10.897h-4.9v-10.13c-.016-2.301-1.685-4.158-3.981-4.143-2.228.015-4.181 1.733-4.284 3.936l-.004.208v10.13h-4.9v-18.265h4.44l.17 2.133c1.423-1.566 3.52-2.579 5.802-2.594zm-13.475.46v18.264h-4.9v-18.263h4.9zm-39.204 3.986v7.149l-7.349 1.427v-7.15zm39.203-11.337v4.773l-4.9.952v-4.773z" fill="#fff"/></svg>