<svg width="1800" height="704" viewBox="0 0 1800 704" fill="none" xmlns="http://www.w3.org/2000/svg">
<g clip-path="url(#clip0_120_15)">
<path d="M1450.5 131.1C1434.3 133.2 1415 140.6 1402.1 149.8C1374.3 169.5 1357.7 199.7 1352.4 240.4C1350.1 257.9 1350.9 293.3 1353.9 308.3C1363.1 354 1391.4 388 1430.5 400.3C1443 404.2 1453.1 405.3 1471.8 404.7C1490.9 404.2 1502.2 401.8 1515.2 395.6C1541.7 383.1 1560.2 359.4 1570 325.5L1571.7 319.5L1547.2 311.3C1533.7 306.7 1522.5 303.2 1522.3 303.4C1522.1 303.6 1521 307 1519.9 311.1C1516.4 324.1 1509.7 336.3 1502.2 343.9C1491.4 354.6 1480.8 359 1465.8 359C1449.3 359 1436.8 353.9 1425.6 342.6C1417.1 334.2 1412.3 325.2 1408.6 311C1405 297.6 1404 287.3 1404 265.9C1404 228.7 1410.5 207.3 1426.5 192.1C1434.8 184.2 1443.2 179.7 1453.5 177.5C1483.1 171.3 1509.5 186.1 1518.2 213.7L1520.4 220.7L1545.3 214.4C1558.9 211 1570.4 208 1570.6 207.7C1571.4 206.9 1565.4 189.7 1561.9 182.8C1547.5 154.3 1522.3 136.5 1489 131.5C1478.7 129.9 1461.6 129.7 1450.5 131.1Z" fill="white"/>
<path d="M1072 267V401H1096H1120V324.3C1120 280.2 1120.4 248 1120.9 248.5C1121.7 249.4 1127.7 262.2 1161.8 335.8L1174.4 363L1194.4 362.8L1214.3 362.5L1240.9 305.3C1255.5 273.8 1267.8 248.1 1268.3 248C1268.7 248 1269 282.4 1269 324.5V401H1293H1317V267V133H1294.3H1271.5L1263.2 151.3C1232.3 218.8 1195.6 298 1195 298C1194.7 298 1177 261 1155.8 215.7L1117.1 133.5L1094.6 133.2L1072 133V267Z" fill="white"/>
<path d="M1607 267V401H1703.5H1800V378.5V356L1729.3 355.8L1658.5 355.5L1658.2 319.2L1658 283H1722H1786V260V237H1722H1658V207.5V178H1726.5H1795V155.5V133H1701H1607V267Z" fill="white"/>
<path d="M200 134.7C196.2 135.2 153.5 143.3 116.5 150.6C103.9 153.1 89.3 156.5 84 158.2C42.1 171.6 13.4 199.7 3.9 236.8C0.8 248.7 0 264.7 0 315C0 364 0.6 372 4.9 387.6C16.1 427.3 49.8 457.3 92 465.1C100.3 466.6 120.2 466.6 130.5 465.1C143.6 463.2 225.7 447.2 236.9 444.4C288.1 431.5 321 393.2 325 341.9C325.5 335.1 326 308.8 326 283.5C326 247 325.7 235.6 324.5 228.1C316.8 180.7 278.4 142.6 231.3 135.5C222.2 134.1 208.2 133.8 200 134.7ZM255.8 256.1L255.5 320.3L231 325.1C217.5 327.8 205.5 330 204.3 330H202V292.4C202 257.1 201.9 254.9 200.3 255.4C199.3 255.7 183.2 258.8 164.5 262.5C145.8 266.1 129.3 269.3 127.8 269.6L125 270.2V243.8V217.4L144.8 213.5C155.6 211.4 184.5 205.8 209 201C233.5 196.1 254.1 192.2 254.8 192.1C255.8 192 256 205.1 255.8 256.1ZM125 308.5V346L127.3 345.5C129.5 345 201.3 331 201.8 331C201.9 331 202 342.8 202 357.3V383.6L138.8 395.9C104 402.7 74.3 408.4 72.8 408.7L70 409.2V345.2V281.1L75.3 280.1C96.6 275.7 120 271.2 122.3 271.1L125 271V308.5Z" fill="white"/>
<path d="M591.8 138.8L568 143.4V167.2C568 180.3 568.1 191 568.3 191C568.4 191 579.1 189 592 186.5C604.9 184 615.8 182 616.2 182C616.6 182 617 171.2 617 158C617 144.8 616.7 134 616.3 134.1C615.8 134.1 604.8 136.3 591.8 138.8Z" fill="white"/>
<path d="M456 165.6C444.2 167.9 434.4 169.9 434.3 169.9C434.1 170 434 179.4 434 191V212H417H400V234V256H417H434V305.7C434 345.2 434.3 356.9 435.5 362.3C439.5 381.1 453.4 396.8 471.8 403.2C477.6 405.2 480.4 405.5 492.5 405.5C502.3 405.4 508.9 404.9 514.5 403.6C522.4 401.8 535 396.8 535 395.4C535 394.7 524.9 361.6 524.6 361.3C524.5 361.1 521 361.7 516.9 362.6C503.5 365.5 493.4 362.6 487.7 354.3C483.2 347.7 482.9 344.4 483.2 299L483.5 256.5L507.8 256.2L532 256V234V212H507.5H483V186.5V161L480.3 161.1C478.7 161.2 467.8 163.2 456 165.6Z" fill="white"/>
<path d="M747.5 208.5C732.3 211.3 717.5 218.9 705.4 230.2L699.2 236.1L698.6 227.3C698.2 222.5 697.7 217 697.4 215.2L696.9 212H675H653V307.5V403H677.5H702V347.2C702 300 702.2 290.5 703.6 285.5C709.7 261.7 735.7 246.4 759.3 252.5C775.8 256.8 787.3 268.1 791.6 284.5C792.7 288.4 793 302.1 793 346.2V403H817.5H842.1L841.8 337.7C841.4 263.7 841.9 268.3 832.8 250C828.3 240.9 826.3 238.3 818.5 230.5C809.2 221.2 802.4 216.5 792 212.3C779.3 207.2 762.3 205.7 747.5 208.5Z" fill="white"/>
<path d="M568 307.5V403H592.5H617V307.5V212H592.5H568V307.5Z" fill="white"/>
<path d="M852 212.9C852 213.4 867.5 256.7 886.4 309L920.9 404.3L909.4 436.7C903 454.6 898 469.4 898.3 469.6C898.7 470 951.8 459.5 952.4 458.9C952.8 458.4 1041 213.1 1041 212.4C1041 212.2 1029.6 212 1015.7 212H990.5L975.6 253.7C967.3 276.7 957.2 305.6 952.9 318C947.9 332.7 945.1 339.7 944.7 338.5C944.3 337.4 942.3 330.1 940.1 322.2C937.2 311.9 909.9 233.1 902.3 213.2C901.9 212.3 895.9 212 876.9 212C862.8 212 852 212.4 852 212.9Z" fill="white"/>
</g>
<defs>
<clipPath id="clip0_120_15">
<rect width="1800" height="340" fill="white" transform="translate(0 130)"/>
</clipPath>
</defs>
</svg>
