<svg width="616" height="299" viewBox="0 0 616 299" fill="none" xmlns="http://www.w3.org/2000/svg">
<g clip-path="url(#clip0_2343_7)">
<path d="M360.48 59.2464C356.197 44.4714 348.994 33.9266 338.959 33.9266C325.574 33.9266 307.231 71.5732 307.231 71.5732L306.039 71.3137L306.359 67.075C306.41 66.2618 306.462 64.601 306.523 62.5076C306.782 52.3693 306.67 42.231 306.22 32.11L305.823 23.2866C305.823 23.1309 305.685 23.0098 305.53 23.0098H296.462C296.306 23.0098 296.177 23.1309 296.168 23.2866L295.771 32.11C295.313 42.2396 295.201 52.3779 295.469 62.5076C295.52 64.601 295.581 66.2705 295.633 67.075L295.952 71.3137L294.761 71.5732C294.761 71.5732 276.418 33.9266 263.032 33.9266C253.006 33.9266 245.803 44.4714 241.511 59.2464C221.83 59.8865 206 75.4313 206 94.4968C206 113.562 221.83 129.107 241.511 129.747C245.795 144.522 252.997 155.067 263.032 155.067C276.418 155.067 294.761 117.42 294.761 117.42L295.952 117.68L295.633 121.919C295.581 122.732 295.529 124.393 295.469 126.486C295.21 136.624 295.322 146.763 295.771 156.892L296.168 165.716C296.168 165.871 296.306 165.992 296.462 165.992H305.53C305.685 165.992 305.815 165.871 305.823 165.716L306.22 156.892C306.678 146.763 306.79 136.624 306.523 126.486C306.471 124.393 306.41 122.723 306.359 121.919L306.039 117.68L307.231 117.42C307.231 117.42 325.574 155.067 338.959 155.067C348.986 155.067 356.188 144.522 360.48 129.747C380.162 129.107 395.991 113.562 395.991 94.4968C395.991 75.4313 380.162 59.8865 360.48 59.2464ZM238.894 117.922C226.856 116.14 217.581 106.331 217.581 94.4968C217.581 82.663 226.856 72.8535 238.894 71.0715C237.642 78.5195 237.029 86.5211 237.029 94.4968C237.029 102.472 237.642 110.474 238.894 117.922ZM261.227 46.1929C262.047 45.6393 263.032 45.7517 263.939 46.2188C268.749 48.814 286.271 76.2444 286.271 77.1787L285.425 78.087C280.174 74.4365 266.849 65.3535 252.997 61.0889C255.536 53.0008 258.654 47.9143 261.218 46.1929H261.227ZM263.939 142.783C263.032 143.251 262.047 143.372 261.227 142.809C258.662 141.088 255.545 136.001 253.006 127.913C266.858 123.649 280.183 114.566 285.434 110.915L286.28 111.824C286.28 112.758 268.758 140.188 263.947 142.783H263.939ZM291.462 95.1456C290.002 95.9674 258.135 114.747 250.346 116.668C249.266 110.301 248.567 102.914 248.567 94.4968C248.567 86.0799 249.266 78.6925 250.346 72.3258C258.127 74.2548 290.002 93.0349 291.462 93.848V95.1369V95.1456ZM338.061 46.2275C338.968 45.7604 339.953 45.6393 340.773 46.2015C343.338 47.923 346.455 53.0094 348.994 61.0975C335.142 65.3622 321.817 74.4451 316.566 78.0956L315.72 77.1873C315.72 76.2531 333.242 48.8226 338.053 46.2275H338.061ZM340.773 142.818C339.953 143.372 338.968 143.259 338.061 142.792C333.251 140.188 315.729 112.766 315.729 111.832L316.575 110.924C321.826 114.574 335.151 123.657 349.003 127.922C346.464 136.01 343.346 141.097 340.782 142.818H340.773ZM351.646 116.676C343.865 114.747 311.989 95.9674 310.53 95.1542V93.8653C311.989 93.0435 343.856 74.2635 351.646 72.3431C352.725 78.7098 353.425 86.0972 353.425 94.5141C353.425 102.931 352.725 110.318 351.646 116.685V116.676ZM363.106 117.931C364.358 110.483 364.971 102.481 364.971 94.5054C364.971 86.5298 364.358 78.5281 363.106 71.0801C375.144 72.8621 384.419 82.6717 384.419 94.5054C384.419 106.339 375.144 116.149 363.106 117.931Z" fill="white"/>
</g>
<g clip-path="url(#clip1_2343_7)">
<path d="M235.963 229.55C234.688 231.845 234.177 234.395 234.177 237.2C234.177 240.005 234.688 242.555 235.963 244.85C237.238 247.145 238.768 248.93 240.809 250.205C242.849 251.48 245.399 252.245 247.95 252.245C250.5 252.245 252.796 251.735 254.836 250.46C256.621 249.44 258.152 247.91 259.172 245.87H270.904C269.884 248.675 268.354 251.48 266.313 254.03C264.273 256.58 261.722 258.365 258.662 259.895C255.601 261.425 251.776 262.19 247.695 262.19C243.614 262.19 239.023 261.17 235.198 258.875C231.372 256.58 228.311 253.52 226.271 249.695C223.976 245.87 222.955 241.535 222.955 236.945C222.955 232.355 223.976 228.275 226.271 224.195C228.311 220.37 231.372 217.31 235.198 215.015C239.023 212.72 243.104 211.7 247.695 211.7C252.286 211.7 255.601 212.465 258.662 213.995C261.722 215.525 264.273 217.565 266.313 219.86C268.354 222.41 269.884 224.96 270.904 228.02H259.172C258.152 226.235 256.877 224.705 254.836 223.43C253.051 222.41 250.755 221.645 247.95 221.645C245.144 221.645 242.849 222.41 240.809 223.685C238.768 224.96 236.983 226.745 235.963 229.04V229.55ZM283.911 230.57C284.677 228.02 286.207 225.725 288.502 223.94C290.798 222.155 293.603 221.39 297.429 221.39C301.254 221.39 302.02 221.9 303.805 222.665C305.845 223.685 307.376 224.96 308.651 226.49C309.926 228.02 310.691 229.805 311.201 231.845H283.401C283.401 231.335 283.656 230.825 283.911 230.315V230.57ZM320.128 248.675C320.383 247.91 320.638 247.145 320.893 246.38H310.181C309.926 247.145 309.416 247.655 308.906 248.165C307.631 249.695 306.1 250.97 304.06 251.99C302.02 253.01 300.234 253.265 297.939 253.265C295.643 253.265 292.838 252.755 290.288 251.48C287.992 250.205 285.952 248.675 284.676 246.38C283.401 244.595 282.636 242.555 282.381 240.26H321.658C321.913 235.16 321.148 230.315 319.363 225.98C317.577 221.645 314.772 218.33 310.946 215.78C307.121 213.23 302.53 211.955 297.429 211.955C292.328 211.955 288.247 212.975 284.421 215.27C280.596 217.565 277.535 220.625 275.24 224.45C272.944 228.275 271.924 232.355 271.924 236.945C271.924 241.535 271.924 238.985 271.924 240.005C272.179 243.575 273.454 246.635 274.985 249.695C277.28 253.52 280.341 256.58 284.166 258.875C288.247 261.17 292.583 262.19 297.684 262.19C302.785 262.19 307.631 260.915 311.201 258.365C315.027 255.815 317.832 252.5 319.618 248.165L320.128 248.675ZM188.524 244.85C187.249 247.145 185.464 249.185 183.168 250.46C180.873 251.735 178.322 252.5 175.772 252.5C173.221 252.5 170.416 251.735 168.376 250.46C166.08 249.185 164.295 247.145 163.02 244.85C161.744 242.555 160.979 240.005 160.979 237.2C160.979 234.395 161.744 231.845 163.02 229.55C164.295 227.255 166.08 225.47 168.376 224.195C170.671 222.92 173.221 222.155 176.027 222.155C178.832 222.155 181.383 222.92 183.678 224.195C185.974 225.47 187.759 227.255 189.034 229.55C190.31 231.845 191.075 234.65 191.075 237.2C191.075 239.75 190.31 242.3 189.034 244.85H188.524ZM188.779 215.525C184.699 213.23 180.363 212.21 175.517 212.21C170.671 212.21 166.335 213.23 162.254 215.525C158.174 217.82 155.113 220.88 153.073 224.705C150.777 228.53 149.757 232.865 149.757 237.2C149.757 241.535 150.777 245.87 153.073 249.695C155.368 253.52 158.429 256.58 162.254 258.875C166.335 261.17 170.671 262.19 175.517 262.19C180.363 262.19 184.954 260.915 188.779 258.62C192.86 256.325 195.921 253.265 197.961 249.44C200.256 245.615 201.277 241.535 201.277 236.945C201.277 232.355 200.256 228.275 197.961 224.45C195.665 220.625 192.605 217.565 188.779 215.27V215.525ZM206.888 212.975H217.599V261.68H206.888V212.72V212.975ZM354.304 191.3H357.62V200.48H355.069C352.774 200.48 350.733 201.245 349.203 202.52C347.673 203.795 346.908 205.835 346.398 208.64L345.632 212.975H357.62V222.155H344.102L337.216 261.68L336.451 266.015C335.431 271.115 333.39 275.195 330.075 277.745C326.759 280.295 322.933 281.57 318.087 281.57C313.242 281.57 312.221 281.57 310.691 281.57L312.221 272.39H317.322C319.618 272.39 321.658 271.625 323.188 270.35C324.719 269.075 325.484 267.035 325.994 264.23L333.39 222.155H325.484V212.975H335.176L336.196 206.855C337.216 201.755 339.256 197.675 342.572 195.125C345.888 192.575 349.713 191.3 354.559 191.3H354.304ZM159.704 191.3L130.629 261.935H118.897L89.5664 191.045H101.809L124.763 248.165L147.717 191.045H159.449L159.704 191.3ZM512.432 212.975L494.324 261.68H483.612L471.88 227.255L460.148 261.68H449.436L431.328 212.975H442.55L455.047 248.42L467.034 212.975H477.491L489.478 248.42L501.976 212.975H512.687H512.432ZM364.761 191.3H375.473V261.935H364.761V191.045V191.3ZM420.106 245.105C418.831 247.4 417.045 249.44 414.75 250.715C412.454 251.99 409.904 252.755 407.354 252.755C404.803 252.755 401.998 251.99 399.957 250.715C397.662 249.44 395.876 247.4 394.601 245.105C393.326 242.81 392.561 240.26 392.561 237.455C392.561 234.65 393.326 232.1 394.601 229.805C395.876 227.51 397.662 225.725 399.957 224.45C402.253 223.175 404.803 222.41 407.609 222.41C410.414 222.41 412.965 223.175 415.26 224.45C417.555 225.725 419.341 227.51 420.616 229.805C421.891 232.1 422.656 234.905 422.656 237.455C422.656 240.005 421.891 242.555 420.616 245.105H420.106ZM420.361 215.78C416.535 213.485 411.944 212.465 407.099 212.465C402.253 212.465 397.917 213.485 393.836 215.78C390.01 218.075 386.695 221.135 384.654 224.96C382.359 228.785 381.339 233.12 381.339 237.455C381.339 241.79 382.359 246.125 384.654 249.95C386.95 253.775 390.01 256.835 393.836 259.13C397.917 261.425 402.253 262.445 407.099 262.445C411.944 262.445 416.535 261.17 420.361 258.875C424.442 256.58 427.502 253.52 429.543 249.695C431.838 245.87 432.858 241.79 432.858 237.2C432.858 232.61 431.838 228.53 429.543 224.705C427.247 220.88 424.187 217.82 420.361 215.525V215.78ZM206.888 191.045H217.599V201.755H206.888V191.045Z" fill="white"/>
</g>
<defs>
<clipPath id="clip0_2343_7">
<rect width="190" height="143" fill="white" transform="translate(206 23)"/>
</clipPath>
<clipPath id="clip1_2343_7">
<rect width="556" height="102" fill="white" transform="translate(23 176)"/>
</clipPath>
</defs>
</svg>
