<?xml version="1.0" encoding="UTF-8"?>
<svg width="175px" height="51px" viewBox="0 0 175 51" version="1.1" xmlns="http://www.w3.org/2000/svg" xmlns:xlink="http://www.w3.org/1999/xlink">
    <!-- Generator: Sketch 54.1 (76490) - https://sketchapp.com -->
    <title>Axure_logo_175</title>
    <desc>Created with Sketch.</desc>
    <g id="Axure_logo_175" stroke="none" stroke-width="1" fill="none" fill-rule="evenodd">
        <g id="Group-18" transform="translate(9.259259, 8.333333)">
            <g id="Group-3" transform="translate(0.000000, 0.261728)" fill="#272727">
                <path d="M21.1472257,20.711818 L21.1472257,30.0010117 C18.4243649,30.4173037 14.2745261,30.5098546 12.8603563,30.5098546 C6.60320112,30.5098546 5.9179654,28.8053432 5.9179654,25.1857389 C5.9179654,21.7988234 7.18936207,20.711818 11.1489622,20.711818 L21.1472257,20.711818 Z M12.5548444,0.113047062 C10.621568,0.113047062 7.98497386,0.162882194 4.70495879,0.556692146 L4.556535,0.588916367 C3.60082141,0.860199341 3.1167489,1.48594874 3.1167489,2.44855366 L3.1167489,3.78623351 C3.1167489,4.92644634 3.82910775,5.6353792 4.97581337,5.6353792 L12.5548444,5.6353792 C18.6579252,5.6353792 21.1472257,7.28331085 21.1472257,11.3244529 L21.1472257,15.2509368 L11.1489622,15.2509368 C3.33448735,15.2509368 -0.00015068405,18.221935 -0.00015068405,25.1857389 C-0.00015068405,32.9472797 3.45126749,35.9714853 12.3103595,35.9714853 C15.8985235,35.9714853 22.5041355,35.6934577 24.9455939,34.9511766 C27.0043147,34.3816322 27.0043147,32.8138864 27.0043147,32.2986736 L27.0043147,10.9602443 C27.0043147,3.66108363 22.2777328,0.113047062 12.5548444,0.113047062 L12.5548444,0.113047062 Z" id="Fill-1"></path>
            </g>
            <g id="Group-6" transform="translate(67.054402, 0.636428)" fill="#272727">
                <path d="M26.52141,0.164193645 L24.3820732,0.164193645 C23.2873536,0.164193645 22.5230087,0.924460432 22.5230087,2.01296463 L22.5230087,30.0746403 L13.6251155,30.0746403 C8.12100389,30.0746403 5.88824297,29.7257944 5.88824297,20.9806655 L5.88824297,2.01296463 C5.88824297,0.924460432 5.12352141,0.164193645 4.0291785,0.164193645 L1.95049202,0.164193645 C0.855772394,0.164193645 0.0307772173,0.958932854 0.0307772173,2.01296463 L0.0307772173,20.9806655 C0.0307772173,33.4094724 4.55242886,35.5965977 14.0526815,35.5965977 C17.4705725,35.5965977 22.1511958,35.5965977 26.6152108,34.9700989 L26.7180527,34.9494904 C27.8206832,34.6748351 28.3800978,34.0453387 28.3800978,33.0789868 L28.3800978,2.01296463 C28.3800978,0.924460432 27.6153762,0.164193645 26.52141,0.164193645" id="Fill-4"></path>
            </g>
            <path d="M119.262357,0.867056355 L119.116194,0.82846223 C117.861749,0.565422662 114.43331,0.37470024 112.733971,0.37470024 C106.719417,0.37470024 103.54036,2.88519185 103.54036,7.63489209 L103.54036,34.0797362 C103.54036,35.1686151 104.304705,35.9288819 105.399425,35.9288819 L107.538762,35.9288819 C108.633481,35.9288819 109.397826,35.1686151 109.397826,34.0797362 L109.397826,8.1205036 C109.397826,6.94844125 109.695427,5.89703237 113.284344,5.89703237 L118.598594,5.89216127 C119.118831,5.95436151 119.615335,5.81085132 119.997319,5.48823441 C120.414714,5.13714029 120.64413,4.62529976 120.64413,4.04788669 L120.64413,2.71020683 C120.64413,1.83190947 120.140469,1.16007194 119.262357,0.867056355" id="Fill-7" fill="#272727"></path>
            <g id="Group-11" transform="translate(122.807501, 0.261728)" fill="#272727">
                <path d="M14.1907835,0.112972122 C8.0315729,0.112972122 4.55152476,1.29852368 2.55345425,4.07692596 C0.466103439,6.97897932 0.0468250687,11.5600644 0.0468250687,18.0120279 C0.0468250687,30.676896 2.0121218,35.9714104 14.1907835,35.9714104 C15.6539256,35.9714104 20.6539991,35.9436826 23.5731259,35.5884667 C24.7089069,35.4007419 25.2174656,34.5336856 25.2174656,33.7576814 L25.2174656,32.3589254 C25.2174656,31.2700465 24.3924704,30.4490782 23.2977508,30.4490782 L14.1907835,30.4490782 C7.31921405,30.4490782 6.07983774,28.8341202 5.90391411,19.6535896 L5.90391411,16.681842 C5.96230418,7.28698291 7.20130378,5.63530426 14.1907835,5.63530426 C20.635917,5.63530426 21.8719029,7.10113159 22.086251,15.3722647 L11.8453862,15.3722647 L11.8453862,20.955673 L25.3146568,20.955673 C27.9678262,20.955673 27.9678262,19.1061526 27.9678262,18.4983888 L27.9678262,16.7159397 C27.775704,3.83674311 24.6851742,0.112972122 14.1907835,0.112972122" id="Fill-9"></path>
            </g>
            <path d="M60.4860094,1.66913969 L60.4860094,1.66876499 C60.2113877,1.08685552 59.6225897,0.739508393 58.9106076,0.739508393 L56.1606237,0.739508393 C55.3619982,0.739508393 54.764536,1.0602518 54.449983,1.63766487 L50.3743561,7.57479017 L53.9425545,12.4398981 L60.1722098,3.53065048 C60.8559387,2.70256295 60.6193647,1.95278777 60.4860094,1.66913969" id="Fill-12" fill="#74BB11"></path>
            <path d="M38.998087,1.57051859 L38.9943199,1.56489808 C38.3731249,0.739433453 37.5462462,0.739433453 37.2742615,0.739433453 L34.5845512,0.739433453 C33.8955484,0.739433453 33.3312366,1.05493106 33.0362726,1.60461631 C32.7330209,2.16741607 32.7970617,2.8441247 33.2167167,3.4706235 L43.181453,17.2423561 L31.7230611,33.1757344 C31.3226182,33.7748801 31.2664884,34.4410971 31.5689866,35.0035222 C31.8654575,35.5532074 32.430146,35.8679556 33.1180187,35.8679556 L35.8680026,35.8679556 C36.5750875,35.8679556 37.1966592,35.5022482 37.5078218,34.9255845 L50.3332947,17.3056805 L38.998087,1.57051859 Z" id="Fill-14" fill="#009CD9"></path>
            <path d="M61.8538062,33.3148606 L53.8592639,22.3766112 L50.3426748,27.2098696 L56.6653776,35.6222647 L56.8296232,35.6938324 C57.1023613,35.8111136 57.3630447,35.8676933 57.6271185,35.8676933 L60.3160754,35.8676933 C60.9655237,35.8676933 61.5170273,35.5799236 61.82932,35.0774505 C62.1491469,34.5626124 62.1581879,33.9203762 61.8538062,33.3148606" id="Fill-16" fill="#EB2084"></path>
        </g>
    </g>
</svg>