<svg width="89" height="55" viewBox="0 0 89 55" fill="none" xmlns="http://www.w3.org/2000/svg">
<path d="M83.4252 27.2004C83.3699 26.6911 83.2827 26.1856 83.1642 25.6872L52.4381 25.6603C52.5755 24.4753 52.8815 23.3156 53.3463 22.217C53.9807 20.6999 54.9119 19.325 56.0853 18.173C57.2407 17.0554 58.6063 16.1781 60.1031 15.592C62.5089 14.5552 65.1774 14.292 67.7394 14.8386C70.3013 15.3852 72.6301 16.7149 74.4032 18.6432L79.2552 13.8952C77.5352 12.0407 75.4469 10.5655 73.1241 9.56415C70.5581 8.48498 67.7956 7.95237 65.0123 8.00018C62.3849 7.98424 59.7793 8.47977 57.3412 9.45917C55.0074 10.392 52.88 11.7748 51.0802 13.529C49.2868 15.2992 47.8518 17.3991 46.8541 19.7131C46.0347 21.6001 45.5325 23.6097 45.3673 25.6603H45.1671C45.0018 23.6095 44.4987 21.5998 43.6781 19.7131C42.6813 17.3986 41.2464 15.2986 39.4523 13.529C37.6528 11.7743 35.5253 10.3914 33.1913 9.45917C28.1106 7.47566 22.4635 7.51153 17.4083 9.55926C15.0859 10.5612 12.9977 12.0363 11.2772 13.8903L16.1302 18.6384C17.9526 16.7845 20.2795 15.5065 22.8219 14.964C25.3643 14.4216 28.01 14.6384 30.4303 15.5871C31.927 16.1728 33.2923 17.0502 34.4471 18.1682C35.6212 19.3198 36.5528 20.6948 37.1871 22.2121C37.6522 23.3107 37.9581 24.4699 38.0953 25.655L7.36925 25.6823C7.25072 26.1807 7.16356 26.6857 7.10827 27.195C7.03995 27.7835 7.00646 28.3755 7.00817 28.968C6.99462 31.2744 7.3665 33.5672 8.10827 35.7512C8.83721 37.8704 10.011 39.8092 11.5511 41.4372C13.2362 43.2213 15.2815 44.6268 17.5511 45.5602C20.0889 46.5718 22.8028 47.068 25.5343 47.0202C28.1612 47.0362 30.766 46.5403 33.2032 45.5602C35.5379 44.6291 37.6656 43.2456 39.4642 41.4899C41.2591 39.7209 42.6943 37.6213 43.6903 35.3063C44.2007 34.1404 44.587 32.9237 44.8431 31.6769H45.7142C45.9705 32.9234 46.3561 34.1401 46.8651 35.3063C47.8619 37.6208 49.297 39.7203 51.0912 41.4899C52.8902 43.2451 55.0178 44.6285 57.3522 45.5602C59.7902 46.5402 62.3958 47.0361 65.0233 47.0202C67.7542 47.0682 70.4672 46.5719 73.0043 45.5602C75.2743 44.6275 77.3197 43.222 79.0043 41.4372C80.5449 39.8092 81.7196 37.8705 82.4493 35.7512C83.1909 33.5671 83.5625 31.2744 83.5492 28.968C83.5421 28.3767 83.5007 27.7868 83.4252 27.2004ZM37.1803 32.8083C36.5436 34.3304 35.6022 35.7063 34.4142 36.8513C33.2465 37.9659 31.8734 38.8431 30.3712 39.4343C27.1697 40.6326 23.6461 40.6507 20.4322 39.486C19.1359 38.9617 17.9433 38.2108 16.9103 37.2682C16.1745 36.5896 15.565 35.7858 15.1102 34.8942C14.5847 33.879 14.1905 32.801 13.9371 31.6862H37.5953C37.4773 32.0675 37.3393 32.4424 37.1822 32.8093L37.1803 32.8083ZM75.4161 34.8942C74.9612 35.7857 74.3519 36.5895 73.6163 37.2682C72.5834 38.2109 71.3905 38.9618 70.0941 39.486C66.8803 40.6507 63.3566 40.6326 60.1551 39.4343C58.6529 38.8427 57.2796 37.9655 56.1112 36.8513C54.9233 35.7064 53.9824 34.3305 53.3463 32.8083C53.1883 32.4405 53.0498 32.0647 52.9313 31.6823H64.8512H76.5902C76.3369 32.7987 75.9427 33.8782 75.4171 34.8952L75.4161 34.8942Z" fill="#2F8D46"/>
</svg>
