<svg width="1461" height="405" viewBox="0 0 1461 405" fill="none" xmlns="http://www.w3.org/2000/svg">
<path d="M258.73 221.547L206.138 193.747L114.846 145.497C114.763 145.414 114.596 145.414 114.513 145.414C111.18 143.83 107.763 147.164 109.013 150.497L155.53 269.139L155.538 269.164C155.588 269.281 155.63 269.397 155.68 269.514C157.588 273.939 161.755 276.672 166.288 277.747C166.672 277.831 166.946 277.906 167.406 277.998C167.864 278.1 168.505 278.239 169.055 278.281C169.147 278.289 169.23 278.289 169.322 278.297H169.388C169.455 278.306 169.522 278.306 169.588 278.314H169.68C169.738 278.322 169.805 278.322 169.863 278.322H169.972C170.038 278.331 170.105 278.331 170.172 278.331V278.331C229.083 284.754 288.519 284.754 347.43 278.331V278.331C348.139 278.331 348.83 278.297 349.497 278.231C349.714 278.206 349.922 278.181 350.13 278.156C350.155 278.147 350.189 278.147 350.214 278.139C350.355 278.122 350.497 278.097 350.639 278.072C350.847 278.047 351.055 278.006 351.264 277.964C351.68 277.872 351.87 277.806 352.435 277.611C353.001 277.417 353.939 277.077 354.527 276.794C355.114 276.511 355.522 276.239 356.014 275.931C356.622 275.547 357.201 275.155 357.787 274.715C358.04 274.521 358.214 274.397 358.397 274.222L358.297 274.164L258.73 221.547Z" fill="#FF4B4B"/>
<path d="M402.766 145.498H402.683L311.357 193.748L362.124 269.357L408.524 150.498V150.331C409.691 146.831 406.108 143.665 402.766 145.498" fill="#7D353B"/>
<path d="M263.597 122.556C261.264 119.147 256.18 119.147 253.93 122.556L206.139 193.748L258.73 221.548L358.398 274.222C359.023 273.609 359.525 273.012 360.056 272.381C360.806 271.456 361.506 270.465 362.123 269.356L311.356 193.748L263.597 122.556Z" fill="#BD4043"/>
<path d="M583.705 163.293H602.096C601.253 139.614 579.413 121.912 549.067 121.912C519.027 121.912 495.425 139.384 495.425 165.745C495.425 186.896 510.751 199.464 535.273 206.514L554.585 212.031C571.137 216.629 585.85 222.453 585.85 238.086C585.85 255.252 569.298 266.593 547.534 266.593C528.836 266.593 512.284 258.317 510.751 240.538H491.133C492.972 266.287 513.816 283.759 547.534 283.759C583.705 283.759 604.242 263.834 604.242 238.393C604.242 208.966 576.348 199.464 560.102 195.172L544.163 190.881C532.514 187.815 513.816 181.685 513.816 164.826C513.816 149.806 527.61 138.771 548.454 138.771C567.459 138.771 581.866 147.814 583.705 163.293ZM679.911 163.293H654.776V135.093H636.69V163.293H618.912V178.62H636.69V252.186C636.69 272.724 653.243 282.533 668.569 282.533C675.313 282.533 679.604 281.307 682.057 280.387L678.378 264.141C676.846 264.447 674.393 265.061 670.408 265.061C662.439 265.061 654.776 262.608 654.776 247.282V178.62H679.911V163.293ZM702.799 281H720.884V206.514C720.884 190.574 733.452 178.926 750.618 178.926C755.446 178.926 760.427 179.846 761.653 180.152V161.761C759.584 161.607 754.832 161.454 752.15 161.454C738.05 161.454 725.789 169.424 721.498 181.072H720.271V163.293H702.799V281ZM824.543 283.452C848.452 283.452 865.924 271.498 871.442 253.719L853.97 248.815C849.372 261.076 838.72 267.206 824.543 267.206C803.316 267.206 788.679 253.489 787.836 228.277H873.281V220.614C873.281 176.78 847.226 161.761 822.704 161.761C790.825 161.761 769.675 186.896 769.675 223.066C769.675 259.237 790.518 283.452 824.543 283.452ZM787.836 212.644C789.062 194.329 802.013 178.007 822.704 178.007C842.322 178.007 854.889 192.72 854.889 212.644H787.836ZM931.114 283.759C951.651 283.759 962.38 272.724 966.058 265.061H966.978V281H985.063V203.448C985.063 166.052 956.556 161.761 941.536 161.761C923.757 161.761 903.526 167.891 894.33 189.348L911.496 195.479C915.481 186.896 924.907 177.7 942.149 177.7C958.778 177.7 966.978 186.513 966.978 201.609V202.222C966.978 210.958 958.088 210.192 936.631 212.951C914.791 215.786 890.959 220.614 890.959 247.588C890.959 270.578 908.737 283.759 931.114 283.759ZM933.873 267.513C919.466 267.513 909.044 261.076 909.044 248.508C909.044 234.714 921.611 230.423 935.712 228.584C943.375 227.664 963.912 225.518 966.978 221.84V238.393C966.978 253.106 955.329 267.513 933.873 267.513ZM1013.76 281H1031.84V207.433C1031.84 190.191 1044.41 178.007 1058.51 178.007C1072.23 178.007 1081.81 186.972 1081.81 200.383V281H1100.2V204.368C1100.2 189.195 1109.7 178.007 1126.25 178.007C1139.13 178.007 1150.16 184.827 1150.16 202.222V281H1168.25V202.222C1168.25 174.558 1153.38 161.761 1132.38 161.761C1115.52 161.761 1103.19 169.5 1097.13 181.685H1095.91C1090.08 169.117 1079.81 161.761 1064.33 161.761C1049.01 161.761 1037.67 169.117 1032.76 181.685H1031.23V163.293H1013.76V281ZM1215.08 124.058H1197V281H1215.08V124.058ZM1243.89 281H1261.98V163.293H1243.89V281ZM1253.09 143.675C1260.14 143.675 1265.96 138.158 1265.96 131.414C1265.96 124.671 1260.14 119.153 1253.09 119.153C1246.04 119.153 1240.21 124.671 1240.21 131.414C1240.21 138.158 1246.04 143.675 1253.09 143.675ZM1341.97 163.293H1316.84V135.093H1298.75V163.293H1280.98V178.62H1298.75V252.186C1298.75 272.724 1315.31 282.533 1330.63 282.533C1337.38 282.533 1341.67 281.307 1344.12 280.387L1340.44 264.141C1338.91 264.447 1336.46 265.061 1332.47 265.061C1324.5 265.061 1316.84 262.608 1316.84 247.282V178.62H1341.97V163.293Z" fill="#FAFAFA"/>
</svg>
