<svg version="1.0" xmlns="http://www.w3.org/2000/svg" width="1800.000000ptpx" height="340.000000ptpx" viewBox="0 0 1800.000000 340.000000" preserveAspectRatio="xMidYMid meet" transform="rotate(0) scale(1, 1)">

<g transform="translate(0.000000,340.000000) scale(0.100000,-0.100000)" fill="#ffffff" stroke="none">
<path d="M14505 3389 c-162 -21 -355 -95 -484 -187 -278 -197 -444 -499 -497&#10;-906 -23 -175 -15 -529 15 -679 92 -457 375 -797 766 -920 125 -39 226 -50&#10;413 -44 191 5 304 29 434 91 265 125 450 362 548 701 l17 60 -245 82 c-135 46&#10;-247 81 -249 79 -2 -2 -13 -36 -24 -77 -35 -130 -102 -252 -177 -328 -108&#10;-107 -214 -151 -364 -151 -165 0 -290 51 -402 164 -85 84 -133 174 -170 316&#10;-36 134 -46 237 -46 451 0 372 65 586 225 738 83 79 167 124 270 146 296 62&#10;560 -86 647 -362 l22 -70 249 63 c136 34 251 64 253 67 8 8 -52 180 -87 249&#10;-144 285 -396 463 -729 513 -103 16 -274 18 -385 4z"/>
<path d="M10720 2030 l0 -1340 240 0 240 0 0 767 c0 441 4 763 9 758 8 -9 68&#10;-137 409 -873 l126 -272 200 2 199 3 266 572 c146 315 269 572 274 573 4 0 7&#10;-344 7 -765 l0 -765 240 0 240 0 0 1340 0 1340 -227 0 -228 0 -83 -183 c-309&#10;-675 -676 -1467 -682 -1467 -3 0 -180 370 -392 823 l-387 822 -225 3 -226 2 0&#10;-1340z"/>
<path d="M16070 2030 l0 -1340 965 0 965 0 0 225 0 225 -707 2 -708 3 -3 363&#10;-2 362 640 0 640 0 0 230 0 230 -640 0 -640 0 0 295 0 295 685 0 685 0 0 225&#10;0 225 -940 0 -940 0 0 -1340z"/>
<path d="M2000 3353 c-38 -5 -465 -86 -835 -159 -126 -25 -272 -59 -325 -76&#10;-419 -134 -706 -415 -801 -786 -31 -119 -39 -279 -39 -782 0 -490 6 -570 49&#10;-726 112 -397 449 -697 871 -775 83 -15 282 -15 385 0 131 19 952 179 1064&#10;207 512 129 841 512 881 1025 5 68 10 331 10 584 0 365 -3 479 -15 554 -77&#10;474 -461 855 -932 926 -91 14 -231 17 -313 8z m558 -1214 l-3 -642 -245 -48&#10;c-135 -27 -255 -49 -267 -49 l-23 0 0 376 c0 353 -1 375 -17 370 -10 -3 -171&#10;-34 -358 -71 -187 -36 -352 -68 -367 -71 l-28 -6 0 264 0 264 198 39 c108 21&#10;397 77 642 125 245 49 451 88 458 89 10 1 12 -130 10 -640z m-1308 -524 l0&#10;-375 23 5 c22 5 740 145 745 145 1 0 2 -118 2 -263 l0 -263 -632 -123 c-348&#10;-68 -645 -125 -660 -128 l-28 -5 0 640 0 641 53 10 c213 44 447 89 470 90 l27&#10;1 0 -375z"/>
<path d="M5918 3312 l-238 -46 0 -238 c0 -131 1 -238 3 -238 1 0 108 20 237&#10;45 129 25 238 45 242 45 4 0 8 108 8 240 0 132 -3 240 -7 239 -5 0 -115 -22&#10;-245 -47z"/>
<path d="M4560 3044 c-118 -23 -216 -43 -217 -43 -2 -1 -3 -95 -3 -211 l0&#10;-210 -170 0 -170 0 0 -220 0 -220 170 0 170 0 0 -497 c0 -395 3 -512 15 -566&#10;40 -188 179 -345 363 -409 58 -20 86 -23 207 -23 98 1 164 6 220 19 79 18 205&#10;68 205 82 0 7 -101 338 -104 341 -1 2 -36 -4 -77 -13 -134 -29 -235 0 -292 83&#10;-45 66 -48 99 -45 553 l3 425 243 3 242 2 0 220 0 220 -245 0 -245 0 0 255 0&#10;255 -27 -1 c-16 -1 -125 -21 -243 -45z"/>
<path d="M7475 2615 c-152 -28 -300 -104 -421 -217 l-62 -59 -6 88 c-4 48 -9&#10;103 -12 121 l-5 32 -219 0 -220 0 0 -955 0 -955 245 0 245 0 0 558 c0 472 2&#10;567 16 617 61 238 321 391 557 330 165 -43 280 -156 323 -320 11 -39 14 -176&#10;14 -617 l0 -568 245 0 246 0 -3 653 c-4 740 1 694 -90 877 -45 91 -65 117&#10;-143 195 -93 93 -161 140 -265 182 -127 51 -297 66 -445 38z"/>
<path d="M5680 1625 l0 -955 245 0 245 0 0 955 0 955 -245 0 -245 0 0 -955z"/>
<path d="M8520 2571 c0 -5 155 -438 344 -961 l345 -953 -115 -324 c-64 -179&#10;-114 -327 -111 -329 4 -4 535 101 541 107 4 5 886 2458 886 2465 0 2 -114 4&#10;-253 4 l-252 0 -149 -417 c-83 -230 -184 -519 -227 -643 -50 -147 -78 -217&#10;-82 -205 -4 11 -24 84 -46 163 -29 103 -302 891 -378 1090 -4 9 -64 12 -254&#10;12 -141 0 -249 -4 -249 -9z"/>
</g>
</svg>